<svg width="1438" height="675" viewBox="0 0 1438 675" fill="none" xmlns="http://www.w3.org/2000/svg">
<path d="M0.0825195 517.325C68.2324 517.015 135.908 512.657 203.697 508.623C236.953 506.645 270.25 504.799 303.619 503.731C330.66 502.867 360.773 500.435 387.134 505.544C458.334 519.349 512.304 566.453 561.306 599.706C601.673 627.098 661.496 673.872 727.749 672.837C761.211 672.317 787.006 655.96 807.627 640.817C838.471 618.165 862.833 591.966 886.968 566.308C911.65 540.063 935.363 513.382 962.239 488.014C985.22 466.318 1012.93 439.783 1051.91 428.8C1110.3 412.344 1186.75 443.692 1234.58 462C1297.86 486.214 1361.28 515.551 1437.52 517.318" stroke="white" stroke-width="4" stroke-miterlimit="10"/>
<path d="M0.0825195 504.265C69.1186 503.751 136.454 495.299 204.171 487.533C260.542 481.072 330.969 469.159 387.866 478.719C456.108 490.183 510.253 530.029 560.368 559.564C602.023 584.114 662.701 624.375 725.503 622.378C761.366 621.237 786.377 600.662 805.761 583.574C837.513 555.582 861.741 524.102 885.938 493.288C910.877 461.532 934.734 429.367 962.085 398.414C984.19 373.402 1010.92 340.716 1052.43 326.661C1122.05 303.092 1197.73 367.067 1234.92 395.151C1265.06 417.915 1293.79 441.576 1326.42 462.936C1357.5 483.274 1391.64 501.997 1437.5 504.265" stroke="white" stroke-width="4" stroke-miterlimit="10"/>
<path d="M0.0825195 492.794C70.4171 491.957 137.207 479.239 204.645 467.702C261.562 457.965 329.279 444.595 388.597 452.79C453.8 461.795 508.099 494.317 559.389 519.678C602.126 540.808 664.206 574.819 723.174 571.569C761.397 569.466 785.748 543.735 803.834 524.939C836.307 491.185 860.504 454.161 884.876 417.83C910.094 380.232 934.157 342.252 961.93 305.38C983.52 276.702 1009.04 237.799 1052.99 219.907C1083.2 207.605 1113 218.279 1136.16 232.367C1178.41 258.058 1207.16 293.342 1235.29 325.5C1265.26 359.769 1293.28 394.868 1326.58 427.896C1353.08 454.194 1385.26 486.531 1437.51 491.205" stroke="white" stroke-width="4" stroke-miterlimit="10"/>
<path d="M0.0825195 477.413C72.0248 476.247 138.217 459.191 205.161 444.009C262.603 430.975 327.527 416.261 389.401 423.117C451.646 430.013 505.966 455.546 558.41 476.523C602.435 494.132 665.237 521.867 720.773 517.945C761.17 515.09 784.738 484.771 801.846 464.564C834.967 425.457 859.206 383.225 883.774 341.718C909.29 298.616 933.58 255.164 961.745 212.728C982.984 180.727 1007.33 136.069 1053.52 114.755C1086.44 99.5724 1115.76 115.685 1136.72 132.713C1181.25 168.887 1208.13 214.916 1235.64 256.951C1265.5 302.558 1293.1 348.897 1326.71 393.457C1349.61 423.816 1379.54 470.953 1437.51 478.132" stroke="white" stroke-width="4" stroke-miterlimit="10"/>
<path d="M0.0825195 464.802C137.062 461.512 250.536 383.561 389.958 394.874C449.472 399.707 503.967 418.403 557.524 434.509C602.786 448.116 666.463 469.806 718.794 465.184C761.118 461.446 784.12 426.314 800.176 404.822C833.555 360.158 858.092 312.823 882.877 266.002C908.651 217.323 933.157 168.313 961.662 120.247C975.368 97.1265 989.724 73.9931 1007.51 52.0069C1019.52 37.1669 1033.3 20.2635 1054.04 9.51104C1089.6 -8.92184 1118.56 13.9215 1137.24 32.9147C1183.33 79.8144 1208.75 136.194 1235.97 188.309C1265.73 245.282 1293.06 302.888 1326.84 358.971C1342.2 384.491 1358.26 410.696 1381.13 433.935C1395.81 448.841 1410.26 460.741 1437.5 465.072" stroke="white" stroke-width="4" stroke-miterlimit="10"/>
</svg>
