<svg width="1437" height="725" viewBox="0 0 1437 725" fill="none" xmlns="http://www.w3.org/2000/svg">
<g clip-path="url(#clip0_60_845)">
<path d="M0.0825195 529.391C67.8408 529.464 135.589 529.365 203.347 529.279C236.582 529.24 269.827 529.2 303.062 529.2C330.011 529.2 360.618 526.675 386.578 532.404C424.1 540.684 454.521 560.759 480.872 578.889C509.367 598.495 535.409 619.512 562.182 640.068C601.281 670.09 660.074 723.523 729.707 723.681C798.012 723.84 852.126 670.209 887.855 639.989C930.88 603.598 980.15 547.699 1051.39 531.883C1076.7 526.266 1108.13 528.627 1134.55 528.6C1167.78 528.567 1201.02 528.752 1234.26 528.976C1302.02 529.431 1369.77 529.965 1437.53 529.391" stroke="white" stroke-width="4" stroke-miterlimit="10"/>
<path d="M0.0825195 516.325C68.2324 516.015 135.908 511.657 203.697 507.623C236.953 505.645 270.25 503.799 303.619 502.731C330.66 501.867 360.773 499.435 387.134 504.544C458.334 518.349 512.304 565.453 561.306 598.706C601.673 626.098 661.496 672.872 727.749 671.837C761.211 671.317 787.006 654.96 807.627 639.817C838.471 617.165 862.833 590.966 886.968 565.308C911.65 539.063 935.363 512.382 962.239 487.014C985.22 465.318 1012.93 438.783 1051.91 427.8C1110.3 411.344 1186.75 442.692 1234.58 461C1297.86 485.214 1361.28 514.551 1437.52 516.318" stroke="white" stroke-width="4" stroke-miterlimit="10"/>
<path d="M0.0825195 503.265C69.1186 502.751 136.454 494.299 204.171 486.533C260.542 480.072 330.969 468.159 387.866 477.719C456.108 489.183 510.253 529.029 560.368 558.564C602.023 583.114 662.701 623.375 725.503 621.378C761.366 620.237 786.377 599.662 805.761 582.574C837.513 554.582 861.741 523.102 885.938 492.288C910.877 460.532 934.734 428.367 962.085 397.414C984.19 372.402 1010.92 339.716 1052.43 325.661C1122.05 302.092 1197.73 366.067 1234.92 394.151C1265.06 416.915 1293.79 440.576 1326.42 461.936C1357.5 482.274 1391.64 500.997 1437.5 503.265" stroke="white" stroke-width="4" stroke-miterlimit="10"/>
<path d="M0.0825195 491.794C70.4171 490.957 137.207 478.239 204.645 466.702C261.562 456.965 329.279 443.595 388.597 451.79C453.8 460.795 508.099 493.317 559.389 518.678C602.126 539.808 664.206 573.819 723.174 570.569C761.397 568.466 785.748 542.735 803.834 523.939C836.307 490.185 860.504 453.161 884.876 416.83C910.094 379.232 934.157 341.252 961.93 304.38C983.52 275.702 1009.04 236.799 1052.99 218.907C1083.2 206.605 1113 217.279 1136.16 231.367C1178.41 257.058 1207.16 292.342 1235.29 324.5C1265.26 358.769 1293.28 393.868 1326.58 426.896C1353.08 453.194 1385.26 485.531 1437.51 490.205" stroke="white" stroke-width="4" stroke-miterlimit="10"/>
<path d="M0.0825195 476.413C72.0248 475.247 138.217 458.191 205.161 443.009C262.603 429.975 327.527 415.261 389.401 422.117C451.646 429.013 505.966 454.546 558.41 475.523C602.435 493.132 665.237 520.867 720.773 516.945C761.17 514.09 784.738 483.771 801.846 463.564C834.967 424.457 859.206 382.225 883.774 340.718C909.29 297.616 933.58 254.164 961.745 211.728C982.984 179.727 1007.33 135.069 1053.52 113.755C1086.44 98.5724 1115.76 114.685 1136.72 131.713C1181.25 167.887 1208.13 213.916 1235.64 255.951C1265.5 301.558 1293.1 347.897 1326.71 392.457C1349.61 422.816 1379.54 469.953 1437.51 477.132" stroke="white" stroke-width="4" stroke-miterlimit="10"/>
<path d="M0.0825195 463.802C137.062 460.512 250.536 382.561 389.958 393.874C449.472 398.707 503.967 417.403 557.524 433.509C602.786 447.116 666.463 468.806 718.794 464.184C761.118 460.446 784.12 425.314 800.176 403.822C833.555 359.158 858.092 311.823 882.877 265.002C908.651 216.323 933.157 167.313 961.662 119.247C975.368 96.1265 989.724 72.9931 1007.51 51.0069C1019.52 36.1669 1033.3 19.2635 1054.04 8.51104C1089.6 -9.92184 1118.56 12.9215 1137.24 31.9147C1183.33 78.8144 1208.75 135.194 1235.97 187.309C1265.73 244.282 1293.06 301.888 1326.84 357.971C1342.2 383.491 1358.26 409.696 1381.13 432.935C1395.81 447.841 1410.26 459.741 1437.5 464.072" stroke="white" stroke-width="4" stroke-miterlimit="10"/>
</g>
<defs>
<clipPath id="clip0_60_845">
<rect width="1438" height="725" fill="white"/>
</clipPath>
</defs>
</svg>
