<svg width="1440" height="193" viewBox="0 0 1440 193" fill="none" xmlns="http://www.w3.org/2000/svg">
<g clip-path="url(#clip0_187_1314)" filter="url(#filter0_f_187_1314)">
<path d="M0.0825806 140.587C68.3272 140.508 136.087 139.413 203.981 138.4C237.282 137.903 270.626 137.439 304.031 137.171C331.11 136.954 361.264 136.343 387.621 137.627C458.92 141.094 512.954 152.925 562.025 161.279C602.458 168.159 662.354 179.905 728.7 179.646C762.208 179.515 788.049 175.407 808.688 171.605C839.575 165.915 863.971 159.335 888.15 152.894C912.918 146.302 936.653 139.6 963.485 133.229C986.508 127.779 1014.26 121.114 1053.27 118.356C1111.73 114.224 1188.29 122.096 1236.19 126.695C1299.55 132.777 1363.06 140.145 1439.4 140.591" stroke="white" stroke-width="3.42917" stroke-miterlimit="10"/>
<path d="M0.0825806 137.305C69.225 137.176 136.644 135.053 204.414 133.103C260.863 131.48 331.347 128.488 388.374 130.889C456.712 133.768 510.932 143.776 561.117 151.195C602.86 157.366 663.623 167.467 726.502 166.97C762.414 166.683 787.471 161.516 806.872 157.224C838.667 150.191 862.929 142.286 887.16 134.547C912.144 126.57 936.034 118.485 963.423 110.717C985.548 104.435 1012.33 96.2252 1053.9 92.6949C1123.61 86.7752 1199.4 102.844 1236.64 109.898C1266.82 115.615 1295.6 121.56 1328.28 126.923C1359.4 132.031 1393.58 136.734 1439.5 137.304" stroke="white" stroke-width="3.42917" stroke-miterlimit="10"/>
<path d="M0.0825806 134.424C70.515 134.212 137.397 131.02 204.93 128.122C261.926 125.675 329.737 122.326 389.138 124.376C454.431 126.638 508.847 134.808 560.167 141.177C602.974 146.475 665.13 155.026 724.18 154.21C762.466 153.682 786.841 147.219 804.952 142.498C837.47 134.02 861.711 124.721 886.107 115.595C911.37 106.157 935.467 96.6127 963.268 87.3498C984.94 80.1485 1010.45 70.3757 1054.45 65.8817C1084.71 62.7918 1114.55 65.4727 1137.75 69.0129C1180.07 75.4707 1208.85 84.3279 1237.01 92.4035C1267.03 101.014 1295.08 109.828 1328.42 118.122C1354.97 124.727 1387.18 132.859 1439.5 134.018" stroke="white" stroke-width="3.42917" stroke-miterlimit="10"/>
<path d="M0.0825806 130.561C72.1249 130.27 138.367 125.986 205.446 122.171C262.968 118.897 327.983 115.201 389.943 116.923C452.274 118.654 506.67 125.069 559.187 130.336C603.273 134.757 666.162 141.725 721.775 140.74C762.239 140.023 785.83 132.407 802.971 127.327C836.128 117.503 860.4 106.897 885.003 96.4703C910.555 85.6443 934.878 74.7306 963.082 64.0718C984.362 56.0343 1008.74 44.8175 1054.99 39.4658C1087.95 35.6573 1117.31 39.6976 1138.31 43.9764C1182.9 53.062 1209.82 64.6216 1237.38 75.181C1267.31 86.6362 1294.91 98.2752 1328.58 109.467C1351.51 117.084 1381.48 128.93 1439.52 130.735" stroke="white" stroke-width="3.42917" stroke-miterlimit="10"/>
<path d="M0.0825806 127.395C137.243 126.567 250.853 106.99 390.5 109.831C450.097 111.043 504.668 115.739 558.3 119.785C603.624 123.202 667.39 128.65 719.794 127.489C762.187 126.551 785.211 117.728 801.32 112.33C834.746 101.11 859.307 89.2209 884.136 77.461C909.935 65.2342 934.486 52.9262 963.031 40.8517C976.756 35.0463 991.131 29.2343 1008.94 23.712C1020.98 19.9847 1034.74 15.7407 1055.54 13.04C1091.15 8.40361 1120.15 14.1478 1138.85 18.9183C1185.01 30.698 1210.47 44.8606 1237.72 57.9484C1267.53 72.2583 1294.89 86.7289 1328.71 100.814C1344.1 107.223 1360.18 113.807 1383.09 119.642C1397.78 123.388 1412.25 126.375 1439.53 127.463" stroke="white" stroke-width="3.42917" stroke-miterlimit="10"/>
</g>
<path d="M0.0825806 140.587C68.3272 140.508 136.087 139.413 203.981 138.4C237.282 137.903 270.626 137.439 304.031 137.171C331.11 136.954 361.264 136.343 387.621 137.627C458.92 141.094 512.954 152.925 562.025 161.279C602.458 168.159 662.354 179.905 728.7 179.646C762.208 179.515 788.049 175.407 808.688 171.605C839.575 165.915 863.971 159.335 888.15 152.894C912.918 146.302 936.653 139.6 963.485 133.229C986.508 127.779 1014.26 121.114 1053.27 118.356C1111.73 114.224 1188.29 122.096 1236.19 126.695C1299.55 132.777 1363.06 140.145 1439.4 140.591" stroke="white" stroke-width="3.42917" stroke-miterlimit="10"/>
<path d="M0.0825806 137.305C69.225 137.176 136.644 135.053 204.414 133.103C260.863 131.48 331.347 128.488 388.374 130.889C456.712 133.768 510.932 143.776 561.117 151.195C602.86 157.366 663.623 167.467 726.502 166.97C762.414 166.683 787.471 161.516 806.872 157.224C838.667 150.191 862.929 142.286 887.16 134.547C912.144 126.57 936.034 118.485 963.423 110.717C985.548 104.435 1012.33 96.2252 1053.9 92.6949C1123.61 86.7752 1199.4 102.844 1236.64 109.898C1266.82 115.615 1295.6 121.56 1328.28 126.923C1359.4 132.031 1393.58 136.734 1439.5 137.304" stroke="white" stroke-width="3.42917" stroke-miterlimit="10"/>
<path d="M0.0825806 134.424C70.515 134.212 137.397 131.02 204.93 128.122C261.926 125.675 329.737 122.326 389.138 124.376C454.431 126.638 508.847 134.808 560.167 141.177C602.974 146.475 665.13 155.026 724.18 154.21C762.466 153.682 786.841 147.219 804.952 142.498C837.47 134.02 861.711 124.721 886.107 115.595C911.37 106.157 935.467 96.6127 963.268 87.3498C984.94 80.1485 1010.45 70.3757 1054.45 65.8817C1084.71 62.7918 1114.55 65.4727 1137.75 69.0129C1180.07 75.4707 1208.85 84.3279 1237.01 92.4035C1267.03 101.014 1295.08 109.828 1328.42 118.122C1354.97 124.727 1387.18 132.859 1439.5 134.018" stroke="white" stroke-width="3.42917" stroke-miterlimit="10"/>
<path d="M0.0825806 130.561C72.1249 130.27 138.367 125.986 205.446 122.171C262.968 118.897 327.983 115.201 389.943 116.923C452.274 118.654 506.67 125.069 559.187 130.336C603.273 134.757 666.162 141.725 721.775 140.74C762.239 140.023 785.83 132.407 802.971 127.327C836.128 117.503 860.4 106.897 885.003 96.4703C910.555 85.6443 934.878 74.7306 963.082 64.0718C984.362 56.0343 1008.74 44.8176 1054.99 39.4658C1087.95 35.6574 1117.31 39.6977 1138.31 43.9764C1182.9 53.0621 1209.82 64.6216 1237.38 75.181C1267.31 86.6362 1294.91 98.2752 1328.58 109.467C1351.51 117.084 1381.48 128.93 1439.52 130.735" stroke="white" stroke-width="3.42917" stroke-miterlimit="10"/>
<path d="M0.0825806 127.395C137.243 126.567 250.853 106.99 390.5 109.831C450.097 111.043 504.668 115.739 558.3 119.785C603.624 123.202 667.39 128.65 719.794 127.489C762.187 126.551 785.211 117.728 801.32 112.33C834.746 101.11 859.307 89.2209 884.136 77.461C909.935 65.2342 934.486 52.9262 963.031 40.8517C976.756 35.0463 991.131 29.2343 1008.94 23.712C1020.98 19.9847 1034.74 15.7407 1055.54 13.04C1091.15 8.40361 1120.15 14.1478 1138.85 18.9183C1185.01 30.698 1210.47 44.8606 1237.72 57.9484C1267.53 72.2583 1294.89 86.7289 1328.71 100.814C1344.1 107.223 1360.18 113.807 1383.09 119.642C1397.78 123.388 1412.25 126.375 1439.53 127.463" stroke="white" stroke-width="3.42917" stroke-miterlimit="10"/>
<defs>
<filter id="filter0_f_187_1314" x="-11" y="0" width="1462" height="204" filterUnits="userSpaceOnUse" color-interpolation-filters="sRGB">
<feFlood flood-opacity="0" result="BackgroundImageFix"/>
<feBlend mode="normal" in="SourceGraphic" in2="BackgroundImageFix" result="shape"/>
<feGaussianBlur stdDeviation="5.5" result="effect1_foregroundBlur_187_1314"/>
</filter>
<clipPath id="clip0_187_1314">
<rect width="1440" height="182" fill="white" transform="translate(0 11)"/>
</clipPath>
</defs>
</svg>
