<svg width="191" height="30" viewBox="0 0 191 30" fill="none" xmlns="http://www.w3.org/2000/svg">
<g clip-path="url(#clip0_201_4435)" filter="url(#filter0_f_201_4435)">
<path d="M22.6022 26.5118H26.5363V17.3928H40.5722V13.9366H26.5363V7.61939H41.0488V4.16193H22.6022V26.5118Z" fill="white"/>
<path d="M60.6858 14.0551C59.9309 12.5261 58.863 11.3384 57.4821 10.4946C56.1011 9.65085 54.4677 9.22833 52.5806 9.22833C50.6934 9.22833 49.02 9.60062 47.5593 10.3465C46.0985 11.091 44.9559 12.1242 44.1327 13.4458C43.3083 14.7675 42.8961 16.3017 42.8961 18.0498C42.8961 19.7978 43.3328 21.3681 44.2074 22.6988C45.0808 24.0295 46.2827 25.0677 47.813 25.8123C49.3421 26.5569 51.0914 26.9304 53.0572 26.9304C54.5863 26.9304 56.0921 26.7024 57.5722 26.2451C59.0524 25.7878 60.3083 25.1631 61.3414 24.3683V21.5665C60.3083 22.302 59.1168 22.8727 57.7655 23.2798C56.4142 23.6868 55.0938 23.8903 53.8018 23.8903C52.3719 23.8903 51.1352 23.6469 50.0918 23.16C49.0484 22.673 48.2446 21.9735 47.6778 21.0589C47.375 20.5707 47.1561 20.0335 47.0156 19.45H61.8181C61.8181 17.3838 61.4406 15.5868 60.6858 14.0564V14.0551ZM49.5263 12.9524C50.3701 12.4951 51.3594 12.2671 52.4917 12.2671C53.5647 12.2671 54.4935 12.481 55.278 12.9074C56.0625 13.335 56.6886 13.9456 57.1549 14.7404C57.4589 15.2583 57.6753 15.8457 57.8067 16.4988H46.9512C47.0659 15.9037 47.263 15.3626 47.5438 14.8744C48.0204 14.05 48.6813 13.4098 49.525 12.9524H49.5263Z" fill="white"/>
<path d="M79.832 17.3181C78.8685 16.8711 77.5326 16.5684 75.8245 16.4086L71.5632 16.0209C70.2712 15.9011 69.3875 15.6885 68.9109 15.3807C68.4342 15.0728 68.1959 14.7005 68.1959 14.2625C68.1959 13.5669 68.5875 13.0413 69.3733 12.6832C70.1578 12.3251 71.245 12.1473 72.6363 12.1473C73.9476 12.1473 74.9949 12.2916 75.7807 12.5802C76.5652 12.8687 77.1513 13.2255 77.5391 13.6532C77.9268 14.0809 78.16 14.5227 78.2398 14.9788H82.1739C82.0747 13.8464 81.6174 12.8481 80.8033 11.9837C79.9879 11.1194 78.8968 10.4444 77.5249 9.95745C76.1543 9.47052 74.5943 9.22705 72.8462 9.22705C71.0982 9.22705 69.6773 9.43058 68.4059 9.83765C67.1345 10.2447 66.1413 10.836 65.4263 11.6102C64.7114 12.3857 64.3533 13.3492 64.3533 14.5008C64.3533 15.2956 64.571 16.0454 65.009 16.75C65.4457 17.4559 66.1812 18.0511 67.2143 18.538C68.2475 19.0249 69.658 19.3482 71.446 19.5067L74.754 19.8043C76.2638 19.9434 77.2917 20.1521 77.8379 20.4303C78.3841 20.7086 78.6572 21.1156 78.6572 21.6515C78.6572 22.4463 78.2501 23.0376 77.436 23.424C76.6206 23.8118 75.4097 24.005 73.8008 24.005C72.6878 24.005 71.6998 23.8762 70.8354 23.6173C69.971 23.3596 69.2754 22.9873 68.7498 22.4991C68.223 22.0122 67.9009 21.4518 67.7811 20.8155H63.847C63.9063 22.0277 64.3391 23.0956 65.1429 24.0192C65.9481 24.9428 67.0842 25.6577 68.5553 26.1653C70.0251 26.6715 71.7629 26.9253 73.7699 26.9253C75.7768 26.9253 77.3355 26.7024 78.6276 26.2554C79.9183 25.8084 80.8819 25.1682 81.5182 24.3335C82.1533 23.4988 82.4715 22.5159 82.4715 21.3836C82.4715 20.5102 82.2731 19.7244 81.8751 19.0301C81.477 18.3345 80.7969 17.7638 79.8333 17.3168L79.832 17.3181Z" fill="white"/>
<path d="M94.8958 23.7409C93.5252 23.7409 92.5359 23.4575 91.9305 22.892C91.3237 22.3265 91.0223 21.3385 91.0223 19.9267V12.6253H98.8596V9.64573H91.0223V5.23502H88.7577L87.1488 9.9433L83.5432 10.8669V12.6253H87.1488V20.5218C87.1488 21.7739 87.3819 22.8817 87.8495 23.844C88.3158 24.8076 89.0565 25.5624 90.069 26.1086C91.0816 26.6548 92.4135 26.9279 94.0624 26.9279C95.0556 26.9279 96.0243 26.8081 96.9685 26.5698C97.9115 26.3315 98.6419 26.0828 99.1584 25.8252V22.637C98.5427 22.9951 97.896 23.2682 97.221 23.4563C96.5447 23.6456 95.7705 23.7397 94.8971 23.7397L94.8958 23.7409Z" fill="white"/>
<path d="M105.758 3.6106C105.291 3.20353 104.68 3 103.925 3C103.17 3 102.584 3.20353 102.107 3.6106C101.63 4.01766 101.392 4.54968 101.392 5.20536C101.392 5.86104 101.63 6.39305 102.107 6.80012C102.584 7.20718 103.189 7.41071 103.925 7.41071C104.66 7.41071 105.29 7.20718 105.758 6.80012C106.224 6.39305 106.458 5.86104 106.458 5.20536C106.458 4.54968 106.225 4.01895 105.758 3.6106Z" fill="white"/>
<path d="M101.987 9.52588V26.5118H105.862V9.52588L103.925 9.88399L101.987 9.52588Z" fill="white"/>
<path d="M118.642 23.1587L112.418 9.64569H108.156L116.381 26.5118H120.731L128.956 9.64569H124.814L118.642 23.1587Z" fill="white"/>
<path d="M146.15 9.64573L145.717 13.7937C145.64 13.6661 145.561 13.5386 145.479 13.4162C144.595 12.0945 143.512 11.0666 142.23 10.3323C140.948 9.59806 139.522 9.22964 137.953 9.22964C136.304 9.22964 134.844 9.60193 133.572 10.3478C132.301 11.0923 131.307 12.1255 130.593 13.4471C129.878 14.7688 129.519 16.3133 129.519 18.0807C129.519 19.8481 129.878 21.3694 130.593 22.7001C131.307 24.0308 132.301 25.0691 133.572 25.8136C134.844 26.5582 136.303 26.9318 137.953 26.9318C139.603 26.9318 140.948 26.5633 142.23 25.8291C143.512 25.0948 144.589 24.0617 145.463 22.7297C145.548 22.5996 145.629 22.4656 145.711 22.3317L146.149 26.5144H150.142L149.248 18.0807L150.142 9.64701H146.149L146.15 9.64573ZM144.287 21.0744C143.581 21.9388 142.772 22.6138 141.859 23.1007C140.944 23.5876 139.951 23.8311 138.879 23.8311C137.808 23.8311 136.893 23.5876 136.078 23.1007C135.262 22.6138 134.622 21.9388 134.156 21.0744C133.688 20.2101 133.455 19.2117 133.455 18.0794C133.455 16.9471 133.688 15.9488 134.156 15.0844C134.622 14.22 135.262 13.545 136.078 13.0581C136.892 12.5712 137.826 12.3277 138.879 12.3277C139.933 12.3277 140.946 12.5712 141.859 13.0581C142.772 13.545 143.582 14.22 144.287 15.0844C144.992 15.9488 145.553 16.9471 145.971 18.0794C145.553 19.2117 144.992 20.2101 144.287 21.0744Z" fill="white"/>
<path d="M157.741 3.56683H153.867V26.5118H157.741V3.56683Z" fill="white"/>
<path d="M165.251 4.23664C164.893 4.02796 164.486 3.92361 164.03 3.92361C163.574 3.92361 163.19 4.02796 162.823 4.23664C162.456 4.44533 162.162 4.72872 161.944 5.08555C161.725 5.44366 161.617 5.84042 161.617 6.27711C161.617 6.7138 161.726 7.08222 161.944 7.43905C162.163 7.79716 162.456 8.08442 162.823 8.30341C162.957 8.38328 163.097 8.44382 163.24 8.49406L161.437 12.4166H163.522L165.131 9.73457C165.627 8.92045 165.97 8.26477 166.159 7.76753C166.347 7.27158 166.442 6.80398 166.442 6.36728C166.442 5.89066 166.333 5.46814 166.115 5.10101C165.896 4.73388 165.609 4.44533 165.251 4.23664Z" fill="white"/>
<path d="M187.66 9.64573H183.667L183.234 13.7937C183.156 13.6661 183.078 13.5386 182.995 13.4162C182.112 12.0945 181.028 11.0666 179.747 10.3323C178.465 9.59806 177.039 9.22964 175.47 9.22964C173.821 9.22964 172.36 9.60193 171.089 10.3478C169.817 11.0923 168.824 12.1255 168.109 13.4471C167.394 14.7688 167.036 16.3133 167.036 18.0807C167.036 19.8481 167.394 21.3694 168.109 22.7001C168.824 24.0308 169.817 25.0691 171.089 25.8136C172.36 26.5582 173.82 26.9318 175.47 26.9318C177.12 26.9318 178.465 26.5633 179.747 25.8291C181.028 25.0948 182.105 24.0617 182.98 22.7297C183.065 22.5996 183.146 22.4656 183.227 22.3317L183.665 26.5144H187.659L186.765 18.0807L187.659 9.64701L187.66 9.64573ZM181.804 21.0744C181.098 21.9388 180.289 22.6138 179.376 23.1007C178.461 23.5876 177.468 23.8311 176.396 23.8311C175.324 23.8311 174.41 23.5876 173.594 23.1007C172.779 22.6138 172.139 21.9388 171.672 21.0744C171.205 20.2101 170.972 19.2117 170.972 18.0794C170.972 16.9471 171.205 15.9488 171.672 15.0844C172.139 14.22 172.779 13.545 173.594 13.0581C174.408 12.5712 175.342 12.3277 176.396 12.3277C177.45 12.3277 178.462 12.5712 179.376 13.0581C180.289 13.545 181.099 14.22 181.804 15.0844C182.509 15.9488 183.07 16.9471 183.488 18.0794C183.07 19.2117 182.509 20.2101 181.804 21.0744Z" fill="white"/>
<path d="M17.2099 4.16193V27L16.835 26.7591V4.40282L17.2099 4.16193Z" fill="white"/>
<path d="M16.0569 4.90134V26.2606L15.6808 26.0197V5.14223L16.0569 4.90134Z" fill="white"/>
<path d="M14.9041 5.64078V25.5212L14.528 25.2816V5.88038L14.9041 5.64078Z" fill="white"/>
<path d="M13.7511 6.38019V24.7818L13.375 24.5422V6.61979L13.7511 6.38019Z" fill="white"/>
<path d="M12.5969 7.11826V24.0436L12.222 23.8027V7.35914L12.5969 7.11826Z" fill="white"/>
<path d="M11.444 7.85776V23.3043L11.0692 23.0634V8.09865L11.444 7.85776Z" fill="white"/>
<path d="M10.2911 8.59714V22.5648L9.91626 22.3239V8.83803L10.2911 8.59714Z" fill="white"/>
<path d="M9.13816 9.33652V21.8254L8.76331 21.5845V9.57741L9.13816 9.33652Z" fill="white"/>
<path d="M7.98522 10.0759V21.086L7.60907 20.8451V10.3168L7.98522 10.0759Z" fill="white"/>
<path d="M6.83239 10.8154V20.3466L6.45624 20.1057V11.0563L6.83239 10.8154Z" fill="white"/>
<path d="M5.67937 11.5547V19.6071L5.30322 19.3675V11.7943L5.67937 11.5547Z" fill="white"/>
<path d="M4.52513 12.2942V18.869L4.15027 18.6281V12.5338L4.52513 12.2942Z" fill="white"/>
<path d="M3 13.2719L3.37228 13.0323V18.1296L3 17.89V13.2719Z" fill="white"/>
</g>
<g clip-path="url(#clip1_201_4435)">
<path d="M22.6022 26.5118H26.5363V17.3928H40.5722V13.9366H26.5363V7.61939H41.0488V4.16193H22.6022V26.5118Z" fill="white"/>
<path d="M60.6858 14.0551C59.9309 12.5261 58.863 11.3384 57.4821 10.4946C56.1011 9.65085 54.4677 9.22833 52.5806 9.22833C50.6934 9.22833 49.02 9.60062 47.5593 10.3465C46.0985 11.091 44.9559 12.1242 44.1327 13.4458C43.3083 14.7675 42.8961 16.3017 42.8961 18.0498C42.8961 19.7978 43.3328 21.3681 44.2074 22.6988C45.0808 24.0295 46.2827 25.0677 47.813 25.8123C49.3421 26.5569 51.0914 26.9304 53.0572 26.9304C54.5863 26.9304 56.0921 26.7024 57.5722 26.2451C59.0524 25.7878 60.3083 25.1631 61.3414 24.3683V21.5665C60.3083 22.302 59.1168 22.8727 57.7655 23.2798C56.4142 23.6868 55.0938 23.8903 53.8018 23.8903C52.3719 23.8903 51.1352 23.6469 50.0918 23.16C49.0484 22.673 48.2446 21.9735 47.6778 21.0589C47.375 20.5707 47.1561 20.0335 47.0156 19.45H61.8181C61.8181 17.3838 61.4406 15.5868 60.6858 14.0564V14.0551ZM49.5263 12.9524C50.3701 12.4951 51.3594 12.2671 52.4917 12.2671C53.5647 12.2671 54.4935 12.481 55.278 12.9074C56.0625 13.335 56.6886 13.9456 57.1549 14.7404C57.4589 15.2583 57.6753 15.8457 57.8067 16.4988H46.9512C47.0659 15.9037 47.263 15.3626 47.5438 14.8744C48.0204 14.05 48.6813 13.4098 49.525 12.9524H49.5263Z" fill="white"/>
<path d="M79.832 17.3181C78.8685 16.8711 77.5326 16.5684 75.8245 16.4086L71.5632 16.0209C70.2712 15.9011 69.3875 15.6885 68.9109 15.3807C68.4342 15.0728 68.1959 14.7005 68.1959 14.2625C68.1959 13.5669 68.5875 13.0413 69.3733 12.6832C70.1578 12.3251 71.245 12.1473 72.6363 12.1473C73.9476 12.1473 74.9949 12.2916 75.7807 12.5802C76.5652 12.8687 77.1513 13.2255 77.5391 13.6532C77.9268 14.0809 78.16 14.5227 78.2398 14.9788H82.1739C82.0747 13.8464 81.6174 12.8481 80.8033 11.9837C79.9879 11.1194 78.8968 10.4444 77.5249 9.95745C76.1543 9.47052 74.5943 9.22705 72.8462 9.22705C71.0982 9.22705 69.6773 9.43058 68.4059 9.83765C67.1345 10.2447 66.1413 10.836 65.4263 11.6102C64.7114 12.3857 64.3533 13.3492 64.3533 14.5008C64.3533 15.2956 64.571 16.0454 65.009 16.75C65.4457 17.4559 66.1812 18.0511 67.2143 18.538C68.2475 19.0249 69.658 19.3482 71.446 19.5067L74.754 19.8043C76.2638 19.9434 77.2917 20.1521 77.8379 20.4303C78.3841 20.7086 78.6572 21.1156 78.6572 21.6515C78.6572 22.4463 78.2501 23.0376 77.436 23.424C76.6206 23.8118 75.4097 24.005 73.8008 24.005C72.6878 24.005 71.6998 23.8762 70.8354 23.6173C69.971 23.3596 69.2754 22.9873 68.7498 22.4991C68.223 22.0122 67.9009 21.4518 67.7811 20.8155H63.847C63.9063 22.0277 64.3391 23.0956 65.1429 24.0192C65.9481 24.9428 67.0842 25.6577 68.5553 26.1653C70.0251 26.6715 71.7629 26.9253 73.7699 26.9253C75.7768 26.9253 77.3355 26.7024 78.6276 26.2554C79.9183 25.8084 80.8819 25.1682 81.5182 24.3335C82.1533 23.4988 82.4715 22.5159 82.4715 21.3836C82.4715 20.5102 82.2731 19.7244 81.8751 19.0301C81.477 18.3345 80.7969 17.7638 79.8333 17.3168L79.832 17.3181Z" fill="white"/>
<path d="M94.8958 23.7409C93.5252 23.7409 92.5359 23.4575 91.9305 22.892C91.3237 22.3265 91.0223 21.3385 91.0223 19.9267V12.6253H98.8596V9.64573H91.0223V5.23502H88.7577L87.1488 9.9433L83.5432 10.8669V12.6253H87.1488V20.5218C87.1488 21.7739 87.3819 22.8817 87.8495 23.844C88.3158 24.8076 89.0565 25.5624 90.069 26.1086C91.0816 26.6548 92.4135 26.9279 94.0624 26.9279C95.0556 26.9279 96.0243 26.8081 96.9685 26.5698C97.9115 26.3315 98.6419 26.0828 99.1584 25.8252V22.637C98.5427 22.9951 97.896 23.2682 97.221 23.4563C96.5447 23.6456 95.7705 23.7397 94.8971 23.7397L94.8958 23.7409Z" fill="white"/>
<path d="M105.758 3.6106C105.291 3.20353 104.68 3 103.925 3C103.17 3 102.584 3.20353 102.107 3.6106C101.63 4.01766 101.392 4.54968 101.392 5.20536C101.392 5.86104 101.63 6.39305 102.107 6.80012C102.584 7.20718 103.189 7.41071 103.925 7.41071C104.66 7.41071 105.29 7.20718 105.758 6.80012C106.224 6.39305 106.458 5.86104 106.458 5.20536C106.458 4.54968 106.225 4.01895 105.758 3.6106Z" fill="white"/>
<path d="M101.987 9.52588V26.5118H105.862V9.52588L103.925 9.88399L101.987 9.52588Z" fill="white"/>
<path d="M118.642 23.1587L112.418 9.64569H108.156L116.381 26.5118H120.731L128.956 9.64569H124.814L118.642 23.1587Z" fill="white"/>
<path d="M146.15 9.64573L145.717 13.7937C145.64 13.6661 145.561 13.5386 145.479 13.4162C144.595 12.0945 143.512 11.0666 142.23 10.3323C140.948 9.59806 139.522 9.22964 137.953 9.22964C136.304 9.22964 134.844 9.60193 133.572 10.3478C132.301 11.0923 131.307 12.1255 130.593 13.4471C129.878 14.7688 129.519 16.3133 129.519 18.0807C129.519 19.8481 129.878 21.3694 130.593 22.7001C131.307 24.0308 132.301 25.0691 133.572 25.8136C134.844 26.5582 136.303 26.9318 137.953 26.9318C139.603 26.9318 140.948 26.5633 142.23 25.8291C143.512 25.0948 144.589 24.0617 145.463 22.7297C145.548 22.5996 145.629 22.4656 145.711 22.3317L146.149 26.5144H150.142L149.248 18.0807L150.142 9.64701H146.149L146.15 9.64573ZM144.287 21.0744C143.581 21.9388 142.772 22.6138 141.859 23.1007C140.944 23.5876 139.951 23.8311 138.879 23.8311C137.808 23.8311 136.893 23.5876 136.078 23.1007C135.262 22.6138 134.622 21.9388 134.156 21.0744C133.688 20.2101 133.455 19.2117 133.455 18.0794C133.455 16.9471 133.688 15.9488 134.156 15.0844C134.622 14.22 135.262 13.545 136.078 13.0581C136.892 12.5712 137.826 12.3277 138.879 12.3277C139.933 12.3277 140.946 12.5712 141.859 13.0581C142.772 13.545 143.582 14.22 144.287 15.0844C144.992 15.9488 145.553 16.9471 145.971 18.0794C145.553 19.2117 144.992 20.2101 144.287 21.0744Z" fill="white"/>
<path d="M157.741 3.56683H153.867V26.5118H157.741V3.56683Z" fill="white"/>
<path d="M165.251 4.23664C164.893 4.02796 164.486 3.92361 164.03 3.92361C163.574 3.92361 163.19 4.02796 162.823 4.23664C162.456 4.44533 162.162 4.72872 161.944 5.08555C161.725 5.44366 161.617 5.84042 161.617 6.27711C161.617 6.7138 161.726 7.08222 161.944 7.43905C162.163 7.79716 162.456 8.08442 162.823 8.30341C162.957 8.38328 163.097 8.44382 163.24 8.49406L161.437 12.4166H163.522L165.131 9.73457C165.627 8.92045 165.97 8.26477 166.159 7.76753C166.347 7.27158 166.442 6.80398 166.442 6.36728C166.442 5.89066 166.333 5.46814 166.115 5.10101C165.896 4.73388 165.609 4.44533 165.251 4.23664Z" fill="white"/>
<path d="M187.66 9.64573H183.667L183.234 13.7937C183.156 13.6661 183.078 13.5386 182.995 13.4162C182.112 12.0945 181.028 11.0666 179.747 10.3323C178.465 9.59806 177.039 9.22964 175.47 9.22964C173.821 9.22964 172.36 9.60193 171.089 10.3478C169.817 11.0923 168.824 12.1255 168.109 13.4471C167.394 14.7688 167.036 16.3133 167.036 18.0807C167.036 19.8481 167.394 21.3694 168.109 22.7001C168.824 24.0308 169.817 25.0691 171.089 25.8136C172.36 26.5582 173.82 26.9318 175.47 26.9318C177.12 26.9318 178.465 26.5633 179.747 25.8291C181.028 25.0948 182.105 24.0617 182.98 22.7297C183.065 22.5996 183.146 22.4656 183.227 22.3317L183.665 26.5144H187.659L186.765 18.0807L187.659 9.64701L187.66 9.64573ZM181.804 21.0744C181.098 21.9388 180.289 22.6138 179.376 23.1007C178.461 23.5876 177.468 23.8311 176.396 23.8311C175.324 23.8311 174.41 23.5876 173.594 23.1007C172.779 22.6138 172.139 21.9388 171.672 21.0744C171.205 20.2101 170.972 19.2117 170.972 18.0794C170.972 16.9471 171.205 15.9488 171.672 15.0844C172.139 14.22 172.779 13.545 173.594 13.0581C174.408 12.5712 175.342 12.3277 176.396 12.3277C177.45 12.3277 178.462 12.5712 179.376 13.0581C180.289 13.545 181.099 14.22 181.804 15.0844C182.509 15.9488 183.07 16.9471 183.488 18.0794C183.07 19.2117 182.509 20.2101 181.804 21.0744Z" fill="white"/>
<path d="M17.2099 4.16193V27L16.835 26.7591V4.40282L17.2099 4.16193Z" fill="white"/>
<path d="M16.0569 4.90134V26.2606L15.6808 26.0197V5.14223L16.0569 4.90134Z" fill="white"/>
<path d="M14.9041 5.64078V25.5212L14.528 25.2816V5.88038L14.9041 5.64078Z" fill="white"/>
<path d="M13.7511 6.38019V24.7818L13.375 24.5422V6.61979L13.7511 6.38019Z" fill="white"/>
<path d="M12.5969 7.11826V24.0436L12.222 23.8027V7.35914L12.5969 7.11826Z" fill="white"/>
<path d="M11.444 7.85776V23.3043L11.0692 23.0634V8.09865L11.444 7.85776Z" fill="white"/>
<path d="M10.2911 8.59714V22.5648L9.91626 22.3239V8.83803L10.2911 8.59714Z" fill="white"/>
<path d="M9.13816 9.33652V21.8254L8.76331 21.5845V9.57741L9.13816 9.33652Z" fill="white"/>
<path d="M7.98522 10.0759V21.086L7.60907 20.8451V10.3168L7.98522 10.0759Z" fill="white"/>
<path d="M6.83239 10.8154V20.3466L6.45624 20.1057V11.0563L6.83239 10.8154Z" fill="white"/>
<path d="M5.67937 11.5547V19.6071L5.30322 19.3675V11.7943L5.67937 11.5547Z" fill="white"/>
<path d="M4.52513 12.2942V18.869L4.15027 18.6281V12.5338L4.52513 12.2942Z" fill="white"/>
<path d="M3 13.2719L3.37228 13.0323V18.1296L3 17.89V13.2719Z" fill="white"/>
</g>
<defs>
<filter id="filter0_f_201_4435" x="0" y="0" width="190.66" height="30" filterUnits="userSpaceOnUse" color-interpolation-filters="sRGB">
<feFlood flood-opacity="0" result="BackgroundImageFix"/>
<feBlend mode="normal" in="SourceGraphic" in2="BackgroundImageFix" result="shape"/>
<feGaussianBlur stdDeviation="1.5" result="effect1_foregroundBlur_201_4435"/>
</filter>
<clipPath id="clip0_201_4435">
<rect width="184.66" height="24" fill="white" transform="translate(3 3)"/>
</clipPath>
<clipPath id="clip1_201_4435">
<rect width="184.66" height="24" fill="white" transform="translate(3 3)"/>
</clipPath>
</defs>
</svg>
