<svg width="125" height="30" viewBox="0 0 125 30" fill="none" xmlns="http://www.w3.org/2000/svg">
<g filter="url(#filter0_f_201_4184)">
<path d="M26 15.1336C26 9.0585 21.0751 4.13364 15 4.13364C8.92486 4.13364 4 9.0585 4 15.1336C4 20.624 8.02252 25.1748 13.2812 26V18.3133H10.4883V15.1336H13.2812V12.7102C13.2812 9.95332 14.9235 8.43051 17.4361 8.43051C18.6392 8.43051 19.8984 8.64536 19.8984 8.64536V11.3524H18.5114C17.145 11.3524 16.7188 12.2004 16.7188 13.0711V15.1336H19.7695L19.2818 18.3133H16.7188V26C21.9775 25.1748 26 20.624 26 15.1336Z" fill="#FF06C8"/>
<path d="M44.5178 26C54.7326 26 60.3213 17.5351 60.3213 10.1965C60.3213 9.95857 60.316 9.71531 60.3054 9.47734C61.3926 8.69112 62.3308 7.71728 63.0759 6.60158C62.0634 7.05206 60.9884 7.34626 59.8876 7.47414C61.0467 6.77939 61.9145 5.68796 62.3303 4.40219C61.2399 5.04839 60.0475 5.50423 58.8041 5.75017C57.9663 4.85999 56.8586 4.27059 55.6523 4.07309C54.4459 3.87558 53.2081 4.08098 52.1302 4.65753C51.0523 5.23407 50.1943 6.14965 49.689 7.2627C49.1836 8.37575 49.059 9.62429 49.3344 10.8153C47.1265 10.7045 44.9666 10.1309 42.9946 9.13183C41.0226 8.13272 39.2826 6.73035 37.8874 5.01563C37.1783 6.23825 36.9613 7.68501 37.2805 9.06187C37.5997 10.4387 38.4313 11.6424 39.6061 12.4282C38.7241 12.4002 37.8614 12.1627 37.0894 11.7354V11.8042C37.0886 13.0872 37.5322 14.331 38.3447 15.3239C39.1572 16.3169 40.2885 16.9979 41.5463 17.2511C40.7293 17.4746 39.8718 17.5072 39.0402 17.3463C39.3952 18.4497 40.0857 19.4148 41.0156 20.1069C41.9454 20.7989 43.0681 21.1834 44.227 21.2067C42.2595 22.7522 39.8292 23.5904 37.3274 23.5864C36.8837 23.5858 36.4404 23.5586 36 23.505C38.5416 25.1356 41.4981 26.0016 44.5178 26Z" fill="#FF06C8"/>
<path d="M81 9.34961C77.8805 9.34961 75.3496 11.8805 75.3496 15C75.3496 18.1195 77.8805 20.6504 81 20.6504C84.1195 20.6504 86.6504 18.1195 86.6504 15C86.6504 11.8805 84.1195 9.34961 81 9.34961ZM81 18.6652C78.9762 18.6652 77.3348 17.0238 77.3348 15C77.3348 12.9762 78.9762 11.3348 81 11.3348C83.0238 11.3348 84.6652 12.9762 84.6652 15C84.6652 17.0238 83.0238 18.6652 81 18.6652Z" fill="#FF06C8"/>
<path d="M88.193 9.12609C88.193 9.85656 87.6 10.4452 86.8738 10.4452C86.1434 10.4452 85.5547 9.85226 85.5547 9.12609C85.5547 8.39562 86.1477 7.80695 86.8738 7.80695C87.6 7.80695 88.193 8.39992 88.193 9.12609Z" fill="#FF06C8"/>
<path d="M81 5.98513C83.9391 5.98513 84.2871 5.99802 85.443 6.04958C86.5172 6.09685 87.0973 6.27732 87.484 6.42771C87.9953 6.62537 88.3648 6.86599 88.7473 7.24841C89.134 7.63513 89.3703 8.00037 89.568 8.51169C89.7184 8.89841 89.8988 9.48279 89.9461 10.5527C89.9977 11.7129 90.0105 12.0609 90.0105 14.9957C90.0105 17.9347 89.9977 18.2828 89.9461 19.4386C89.8988 20.5129 89.7184 21.0929 89.568 21.4797C89.3703 21.991 89.1297 22.3605 88.7473 22.7429C88.3605 23.1297 87.9953 23.366 87.484 23.5637C87.0973 23.714 86.5129 23.8945 85.443 23.9418C84.2828 23.9933 83.9348 24.0062 81 24.0062C78.0609 24.0062 77.7129 23.9933 76.557 23.9418C75.4828 23.8945 74.9027 23.714 74.516 23.5637C74.0047 23.366 73.6352 23.1254 73.2527 22.7429C72.866 22.3562 72.6297 21.991 72.432 21.4797C72.2816 21.0929 72.1012 20.5086 72.0539 19.4386C72.0023 18.2785 71.9895 17.9304 71.9895 14.9957C71.9895 12.0566 72.0023 11.7086 72.0539 10.5527C72.1012 9.47849 72.2816 8.89841 72.432 8.51169C72.6297 8.00037 72.8703 7.63084 73.2527 7.24841C73.6395 6.86169 74.0047 6.62537 74.516 6.42771C74.9027 6.27732 75.4871 6.09685 76.557 6.04958C77.7129 5.99802 78.0609 5.98513 81 5.98513ZM81 4.00427C78.0137 4.00427 77.6398 4.01716 76.4668 4.06873C75.298 4.12029 74.4945 4.30935 73.7984 4.58005C73.0723 4.86365 72.4578 5.23748 71.8477 5.85193C71.2332 6.46209 70.8594 7.07654 70.5758 7.79841C70.3051 8.4988 70.116 9.29802 70.0645 10.4668C70.0129 11.6441 70 12.0179 70 15.0043C70 17.9906 70.0129 18.3644 70.0645 19.5375C70.116 20.7062 70.3051 21.5097 70.5758 22.2058C70.8594 22.932 71.2332 23.5465 71.8477 24.1566C72.4578 24.7668 73.0723 25.1449 73.7941 25.4242C74.4945 25.6949 75.2938 25.884 76.4625 25.9355C77.6355 25.9871 78.0094 26 80.9957 26C83.982 26 84.3559 25.9871 85.5289 25.9355C86.6977 25.884 87.5012 25.6949 88.1973 25.4242C88.9191 25.1449 89.5336 24.7668 90.1438 24.1566C90.7539 23.5465 91.132 22.932 91.4113 22.2101C91.682 21.5097 91.8711 20.7105 91.9227 19.5418C91.9742 18.3687 91.9871 17.9949 91.9871 15.0086C91.9871 12.0222 91.9742 11.6484 91.9227 10.4754C91.8711 9.30662 91.682 8.5031 91.4113 7.80701C91.1406 7.07654 90.7668 6.46209 90.1523 5.85193C89.5422 5.24177 88.9277 4.86365 88.2059 4.58435C87.5055 4.31365 86.7063 4.12458 85.5375 4.07302C84.3602 4.01716 83.9863 4.00427 81 4.00427Z" fill="#FF06C8"/>
<path d="M115.804 4H112.096V18.9855C112.096 20.771 110.67 22.2377 108.895 22.2377C107.121 22.2377 105.695 20.771 105.695 18.9855C105.695 17.2319 107.089 15.7971 108.8 15.7333V11.971C105.029 12.0348 101.987 15.1275 101.987 18.9855C101.987 22.8754 105.093 26 108.927 26C112.761 26 115.867 22.8435 115.867 18.9855V11.3014C117.261 12.3217 118.972 12.9275 120.779 12.9594V9.1971C117.99 9.10145 115.804 6.80579 115.804 4Z" fill="#FF06C8"/>
</g>
<path d="M26 15.1336C26 9.0585 21.0751 4.13364 15 4.13364C8.92486 4.13364 4 9.0585 4 15.1336C4 20.624 8.02252 25.1748 13.2812 26V18.3133H10.4883V15.1336H13.2812V12.7102C13.2812 9.95332 14.9235 8.43051 17.4361 8.43051C18.6392 8.43051 19.8984 8.64536 19.8984 8.64536V11.3524H18.5114C17.145 11.3524 16.7188 12.2004 16.7188 13.0711V15.1336H19.7695L19.2818 18.3133H16.7188V26C21.9775 25.1748 26 20.624 26 15.1336Z" fill="#FF06C8"/>
<path d="M44.5178 26C54.7326 26 60.3213 17.5351 60.3213 10.1965C60.3213 9.95857 60.316 9.71531 60.3054 9.47734C61.3926 8.69112 62.3308 7.71728 63.0759 6.60158C62.0634 7.05206 60.9884 7.34626 59.8876 7.47414C61.0467 6.77939 61.9145 5.68796 62.3303 4.40219C61.2399 5.04839 60.0475 5.50423 58.8041 5.75017C57.9663 4.85999 56.8586 4.27059 55.6523 4.07309C54.4459 3.87558 53.2081 4.08098 52.1302 4.65753C51.0523 5.23407 50.1943 6.14965 49.689 7.2627C49.1836 8.37575 49.059 9.62429 49.3344 10.8153C47.1265 10.7045 44.9666 10.1309 42.9946 9.13183C41.0226 8.13272 39.2826 6.73035 37.8874 5.01563C37.1783 6.23825 36.9613 7.68501 37.2805 9.06187C37.5997 10.4387 38.4313 11.6424 39.6061 12.4282C38.7241 12.4002 37.8614 12.1627 37.0894 11.7354V11.8042C37.0886 13.0872 37.5322 14.331 38.3447 15.3239C39.1572 16.3169 40.2885 16.9979 41.5463 17.2511C40.7293 17.4746 39.8718 17.5072 39.0402 17.3463C39.3952 18.4497 40.0857 19.4148 41.0156 20.1069C41.9454 20.7989 43.0681 21.1834 44.227 21.2067C42.2595 22.7522 39.8292 23.5904 37.3274 23.5864C36.8837 23.5858 36.4404 23.5586 36 23.505C38.5416 25.1356 41.4981 26.0016 44.5178 26Z" fill="#FF06C8"/>
<path d="M81 9.34961C77.8805 9.34961 75.3496 11.8805 75.3496 15C75.3496 18.1195 77.8805 20.6504 81 20.6504C84.1195 20.6504 86.6504 18.1195 86.6504 15C86.6504 11.8805 84.1195 9.34961 81 9.34961ZM81 18.6652C78.9762 18.6652 77.3348 17.0238 77.3348 15C77.3348 12.9762 78.9762 11.3348 81 11.3348C83.0238 11.3348 84.6652 12.9762 84.6652 15C84.6652 17.0238 83.0238 18.6652 81 18.6652Z" fill="#FF06C8"/>
<path d="M88.193 9.12609C88.193 9.85656 87.6 10.4452 86.8738 10.4452C86.1434 10.4452 85.5547 9.85226 85.5547 9.12609C85.5547 8.39562 86.1477 7.80695 86.8738 7.80695C87.6 7.80695 88.193 8.39992 88.193 9.12609Z" fill="#FF06C8"/>
<path d="M81 5.98513C83.9391 5.98513 84.2871 5.99802 85.443 6.04958C86.5172 6.09685 87.0973 6.27732 87.484 6.42771C87.9953 6.62537 88.3648 6.86599 88.7473 7.24841C89.134 7.63513 89.3703 8.00037 89.568 8.51169C89.7184 8.89841 89.8988 9.48279 89.9461 10.5527C89.9977 11.7129 90.0105 12.0609 90.0105 14.9957C90.0105 17.9347 89.9977 18.2828 89.9461 19.4386C89.8988 20.5129 89.7184 21.0929 89.568 21.4797C89.3703 21.991 89.1297 22.3605 88.7473 22.7429C88.3605 23.1297 87.9953 23.366 87.484 23.5637C87.0973 23.714 86.5129 23.8945 85.443 23.9418C84.2828 23.9933 83.9348 24.0062 81 24.0062C78.0609 24.0062 77.7129 23.9933 76.557 23.9418C75.4828 23.8945 74.9027 23.714 74.516 23.5637C74.0047 23.366 73.6352 23.1254 73.2527 22.7429C72.866 22.3562 72.6297 21.991 72.432 21.4797C72.2816 21.0929 72.1012 20.5086 72.0539 19.4386C72.0023 18.2785 71.9895 17.9304 71.9895 14.9957C71.9895 12.0566 72.0023 11.7086 72.0539 10.5527C72.1012 9.47849 72.2816 8.89841 72.432 8.51169C72.6297 8.00037 72.8703 7.63084 73.2527 7.24841C73.6395 6.86169 74.0047 6.62537 74.516 6.42771C74.9027 6.27732 75.4871 6.09685 76.557 6.04958C77.7129 5.99802 78.0609 5.98513 81 5.98513ZM81 4.00427C78.0137 4.00427 77.6398 4.01716 76.4668 4.06873C75.298 4.12029 74.4945 4.30935 73.7984 4.58005C73.0723 4.86365 72.4578 5.23748 71.8477 5.85193C71.2332 6.46209 70.8594 7.07654 70.5758 7.79841C70.3051 8.4988 70.116 9.29802 70.0645 10.4668C70.0129 11.6441 70 12.0179 70 15.0043C70 17.9906 70.0129 18.3644 70.0645 19.5375C70.116 20.7062 70.3051 21.5097 70.5758 22.2058C70.8594 22.932 71.2332 23.5465 71.8477 24.1566C72.4578 24.7668 73.0723 25.1449 73.7941 25.4242C74.4945 25.6949 75.2938 25.884 76.4625 25.9355C77.6355 25.9871 78.0094 26 80.9957 26C83.982 26 84.3559 25.9871 85.5289 25.9355C86.6977 25.884 87.5012 25.6949 88.1973 25.4242C88.9191 25.1449 89.5336 24.7668 90.1438 24.1566C90.7539 23.5465 91.132 22.932 91.4113 22.2101C91.682 21.5097 91.8711 20.7105 91.9227 19.5418C91.9742 18.3687 91.9871 17.9949 91.9871 15.0086C91.9871 12.0222 91.9742 11.6484 91.9227 10.4754C91.8711 9.30662 91.682 8.5031 91.4113 7.80701C91.1406 7.07654 90.7668 6.46209 90.1523 5.85193C89.5422 5.24177 88.9277 4.86365 88.2059 4.58435C87.5055 4.31365 86.7063 4.12458 85.5375 4.07302C84.3602 4.01716 83.9863 4.00427 81 4.00427Z" fill="#FF06C8"/>
<path d="M115.804 4H112.096V18.9855C112.096 20.771 110.67 22.2377 108.895 22.2377C107.121 22.2377 105.695 20.771 105.695 18.9855C105.695 17.2319 107.089 15.7971 108.8 15.7333V11.971C105.029 12.0348 101.987 15.1275 101.987 18.9855C101.987 22.8754 105.093 26 108.927 26C112.761 26 115.867 22.8435 115.867 18.9855V11.3014C117.261 12.3217 118.972 12.9275 120.779 12.9594V9.1971C117.99 9.10145 115.804 6.80579 115.804 4Z" fill="#FF06C8"/>
<defs>
<filter id="filter0_f_201_4184" x="0" y="0" width="124.779" height="30" filterUnits="userSpaceOnUse" color-interpolation-filters="sRGB">
<feFlood flood-opacity="0" result="BackgroundImageFix"/>
<feBlend mode="normal" in="SourceGraphic" in2="BackgroundImageFix" result="shape"/>
<feGaussianBlur stdDeviation="2" result="effect1_foregroundBlur_201_4184"/>
</filter>
</defs>
</svg>
