<svg width="69" height="58" viewBox="0 0 69 58" fill="none" xmlns="http://www.w3.org/2000/svg">
<path d="M51.75 40.4792C51.3496 40.4792 50.957 40.3855 50.6164 40.2085C50.2758 40.0316 50.0005 39.7784 49.8214 39.4773C49.6423 39.1762 49.5665 38.8392 49.6025 38.5039C49.6384 38.1687 49.7847 37.8485 50.025 37.5792C52.2231 35.1005 53.4104 32.0916 53.4104 29C53.4104 25.9085 52.2231 22.8996 50.025 20.4209C49.6819 20.0363 49.5346 19.5529 49.6154 19.0771C49.6963 18.6012 49.9988 18.1718 50.4563 17.8834C50.9138 17.595 51.4888 17.4711 52.0549 17.5391C52.6211 17.6071 53.1319 17.8613 53.475 18.2459C59.11 24.5775 59.11 33.4225 53.475 39.7542C53.0438 40.2375 52.4113 40.4792 51.75 40.4792Z" fill="#FF06C8"/>
<path d="M57.0055 46.5208C56.6051 46.5208 56.2125 46.4271 55.8719 46.2501C55.5313 46.0731 55.256 45.8199 55.0769 45.5189C54.8978 45.2178 54.822 44.8808 54.858 44.5455C54.8939 44.2103 55.0402 43.8901 55.2805 43.6208C62.9568 35.0175 62.9568 22.9825 55.2805 14.3791C54.9374 13.9946 54.79 13.5112 54.8709 13.0353C54.9518 12.5594 55.2543 12.13 55.7118 11.8416C56.1693 11.5532 56.7443 11.4294 57.3104 11.4973C57.8766 11.5653 58.3874 11.8196 58.7305 12.2041C67.5567 22.0883 67.5567 35.9116 58.7305 45.7958C58.328 46.2791 57.6667 46.5208 57.0055 46.5208ZM40.3075 9.13979C37.0875 7.64145 32.9763 8.02812 28.7788 10.2273L20.3838 14.6498C19.8088 14.9398 19.1475 15.109 18.4862 15.109H14.375C7.4175 15.109 3.59375 18.3231 3.59375 24.1715V33.8381C3.59375 39.6865 7.4175 42.9006 14.375 42.9006H18.4862C19.1475 42.9006 19.8088 43.0698 20.3838 43.3598L28.7788 47.7823C31.3088 49.1115 33.7812 49.764 36.0812 49.764C37.5578 49.7749 39.013 49.467 40.3075 48.8698C43.4988 47.3715 45.2812 44.254 45.2812 40.0973V17.9123C45.2812 13.7556 43.4988 10.6381 40.3075 9.13979Z" fill="#FF06C8"/>
</svg>
