<svg width="1435" height="275" viewBox="0 0 1435 275" fill="none" xmlns="http://www.w3.org/2000/svg">
<g clip-path="url(#clip0_60_2690)">
<path d="M0.0822754 195.805C68.0899 195.685 135.614 194.031 203.272 192.5C236.459 191.749 269.686 191.049 302.975 190.643C329.96 190.315 360.01 189.392 386.275 191.331C457.327 196.57 511.173 214.447 560.073 227.07C600.366 237.465 660.054 255.214 726.169 254.821C759.561 254.624 785.312 248.416 805.88 242.672C836.66 234.075 860.971 224.132 885.066 214.4C909.748 204.439 933.401 194.314 960.139 184.686C983.083 176.452 1010.74 166.382 1049.61 162.213C1107.87 155.971 1184.16 167.865 1231.9 174.813C1295.04 184.003 1358.32 195.137 1434.4 195.81" stroke="#FF06C8" stroke-width="3.42917" stroke-miterlimit="10"/>
<path d="M0.0822754 190.846C68.9846 190.651 136.17 187.443 203.704 184.496C259.957 182.044 330.197 177.523 387.026 181.151C455.126 185.502 509.158 200.624 559.168 211.833C600.767 221.157 661.319 236.419 723.979 235.669C759.767 235.236 784.736 227.427 804.07 220.942C835.755 210.316 859.933 198.372 884.079 186.678C908.977 174.626 932.784 162.408 960.077 150.672C982.126 141.179 1008.81 128.774 1050.24 123.44C1119.7 114.496 1195.24 138.775 1232.34 149.433C1262.43 158.072 1291.1 167.055 1323.67 175.159C1354.68 182.877 1388.74 189.983 1434.51 190.843" stroke="#FF06C8" stroke-width="3.42917" stroke-miterlimit="10"/>
<path d="M0.0822754 186.492C70.2701 186.172 136.92 181.348 204.218 176.97C261.017 173.272 328.592 168.213 387.787 171.31C452.853 174.728 507.08 187.073 558.222 196.696C600.88 204.702 662.82 217.622 721.665 216.389C759.818 215.59 784.109 205.825 802.157 198.692C834.562 185.882 858.719 171.831 883.03 158.042C908.205 143.781 932.218 129.36 959.923 115.364C981.52 104.483 1006.94 89.7159 1050.79 82.9256C1080.94 78.2569 1110.68 82.3076 1133.8 87.6568C1175.97 97.4145 1204.65 110.798 1232.71 123C1262.63 136.01 1290.58 149.328 1323.81 161.861C1350.26 171.841 1382.37 184.128 1434.51 185.879" stroke="#FF06C8" stroke-width="3.42917" stroke-miterlimit="10"/>
<path d="M0.0822754 180.655C71.8744 180.215 137.887 173.742 204.733 167.978C262.055 163.031 326.844 157.447 388.589 160.049C450.704 162.664 504.911 172.356 557.245 180.315C601.178 186.995 663.849 197.524 719.269 196.035C759.592 194.952 783.101 183.445 800.183 175.769C833.225 160.925 857.413 144.9 881.93 129.145C907.393 112.787 931.632 96.2962 959.738 80.191C980.944 68.0463 1005.23 51.0979 1051.33 43.0115C1084.17 37.257 1113.43 43.3618 1134.36 49.8269C1178.8 63.5553 1205.62 81.0216 1233.09 96.9767C1262.91 114.285 1290.42 131.872 1323.96 148.783C1346.82 160.292 1376.68 178.191 1434.52 180.918" stroke="#FF06C8" stroke-width="3.42917" stroke-miterlimit="10"/>
<path d="M0.0822754 175.872C136.766 174.621 249.982 145.04 389.144 149.333C448.534 151.164 502.915 158.26 556.361 164.372C601.528 169.537 665.072 177.768 717.294 176.014C759.541 174.596 782.484 161.265 798.537 153.109C831.847 136.155 856.323 118.191 881.066 100.422C906.776 81.9473 931.241 63.3501 959.687 45.1056C973.364 36.3337 987.69 27.5517 1005.44 19.2077C1017.43 13.5757 1031.15 7.16313 1051.87 3.0824C1087.36 -3.92314 1116.26 4.75622 1134.89 11.9644C1180.89 29.7635 1206.26 51.1629 1233.42 70.9386C1263.12 92.5607 1290.4 114.425 1324.1 135.707C1339.43 145.392 1355.45 155.34 1378.28 164.157C1392.93 169.817 1407.35 174.33 1434.53 175.974" stroke="#FF06C8" stroke-width="3.42917" stroke-miterlimit="10"/>
</g>
<defs>
<clipPath id="clip0_60_2690">
<rect width="1435" height="275" fill="white"/>
</clipPath>
</defs>
</svg>
