<svg width="1440" height="275" viewBox="0 0 1440 275" fill="none" xmlns="http://www.w3.org/2000/svg">
<g clip-path="url(#clip0_60_2539)" filter="url(#filter0_d_60_2539)">
<path d="M4.08228 195.805C72.0899 195.685 139.614 194.031 207.272 192.5C240.459 191.749 273.686 191.049 306.975 190.643C333.96 190.316 364.01 189.392 390.275 191.331C461.327 196.57 515.173 214.447 564.073 227.07C604.366 237.465 664.054 255.214 730.169 254.822C763.561 254.624 789.312 248.416 809.88 242.672C840.66 234.075 864.971 224.132 889.066 214.4C913.748 204.439 937.401 194.314 964.139 184.686C987.083 176.452 1014.74 166.382 1053.61 162.213C1111.87 155.971 1188.16 167.865 1235.9 174.813C1299.04 184.003 1362.32 195.137 1438.4 195.81" stroke="white" stroke-width="3.42917" stroke-miterlimit="10"/>
<path d="M4.08228 190.846C72.9846 190.651 140.17 187.443 207.704 184.496C263.957 182.044 334.197 177.523 391.026 181.151C459.126 185.502 513.158 200.624 563.168 211.833C604.767 221.157 665.319 236.419 727.979 235.669C763.767 235.236 788.736 227.427 808.07 220.942C839.755 210.316 863.933 198.372 888.079 186.678C912.977 174.626 936.784 162.408 964.077 150.672C986.126 141.179 1012.81 128.774 1054.24 123.44C1123.7 114.496 1199.24 138.775 1236.34 149.433C1266.43 158.073 1295.1 167.055 1327.67 175.159C1358.68 182.877 1392.74 189.983 1438.51 190.843" stroke="white" stroke-width="3.42917" stroke-miterlimit="10"/>
<path d="M4.08228 186.493C74.2701 186.172 140.92 181.348 208.218 176.97C265.017 173.272 332.592 168.213 391.787 171.311C456.853 174.728 511.08 187.073 562.222 196.696C604.88 204.702 666.82 217.622 725.665 216.389C763.818 215.591 788.109 205.825 806.157 198.692C838.562 185.882 862.719 171.831 887.03 158.043C912.205 143.781 936.218 129.36 963.923 115.364C985.52 104.483 1010.94 89.716 1054.79 82.9256C1084.94 78.2569 1114.68 82.3076 1137.8 87.6568C1179.97 97.4146 1208.65 110.798 1236.71 123C1266.63 136.01 1294.58 149.328 1327.81 161.861C1354.26 171.841 1386.37 184.128 1438.51 185.88" stroke="white" stroke-width="3.42917" stroke-miterlimit="10"/>
<path d="M4.08228 180.655C75.8744 180.215 141.887 173.742 208.733 167.978C266.055 163.031 330.844 157.447 392.589 160.049C454.704 162.664 508.911 172.356 561.245 180.315C605.178 186.995 667.849 197.524 723.269 196.035C763.592 194.952 787.101 183.445 804.183 175.769C837.225 160.925 861.413 144.9 885.93 129.145C911.393 112.787 935.632 96.2962 963.738 80.1909C984.944 68.0463 1009.23 51.0979 1055.33 43.0115C1088.17 37.257 1117.43 43.3618 1138.36 49.8269C1182.8 63.5553 1209.62 81.0216 1237.09 96.9767C1266.91 114.285 1294.42 131.872 1327.96 148.783C1350.82 160.292 1380.68 178.191 1438.52 180.918" stroke="white" stroke-width="3.42917" stroke-miterlimit="10"/>
<path d="M4.08228 175.872C140.766 174.621 253.982 145.04 393.144 149.333C452.534 151.165 506.915 158.26 560.361 164.372C605.528 169.537 669.072 177.768 721.294 176.014C763.541 174.596 786.484 161.265 802.537 153.109C835.847 136.155 860.323 118.191 885.066 100.422C910.776 81.9473 935.241 63.3501 963.687 45.1057C977.364 36.3337 991.69 27.5518 1009.44 19.2077C1021.43 13.5757 1035.15 7.16316 1055.87 3.08243C1091.36 -3.92311 1120.26 4.75625 1138.89 11.9645C1184.89 29.7635 1210.26 51.163 1237.42 70.9386C1267.12 92.5607 1294.4 114.425 1328.1 135.707C1343.43 145.392 1359.45 155.34 1382.28 164.157C1396.93 169.817 1411.35 174.33 1438.53 175.974" stroke="white" stroke-width="3.42917" stroke-miterlimit="10"/>
</g>
<defs>
<filter id="filter0_d_60_2539" x="0" y="0" width="1443" height="283" filterUnits="userSpaceOnUse" color-interpolation-filters="sRGB">
<feFlood flood-opacity="0" result="BackgroundImageFix"/>
<feColorMatrix in="SourceAlpha" type="matrix" values="0 0 0 0 0 0 0 0 0 0 0 0 0 0 0 0 0 0 127 0" result="hardAlpha"/>
<feOffset dy="4"/>
<feGaussianBlur stdDeviation="2"/>
<feComposite in2="hardAlpha" operator="out"/>
<feColorMatrix type="matrix" values="0 0 0 0 0 0 0 0 0 0 0 0 0 0 0 0 0 0 0.25 0"/>
<feBlend mode="normal" in2="BackgroundImageFix" result="effect1_dropShadow_60_2539"/>
<feBlend mode="normal" in="SourceGraphic" in2="effect1_dropShadow_60_2539" result="shape"/>
</filter>
<clipPath id="clip0_60_2539">
<rect width="1435" height="275" fill="white" transform="translate(4)"/>
</clipPath>
</defs>
</svg>
