<svg width="31" height="31" viewBox="0 0 31 31" fill="none" xmlns="http://www.w3.org/2000/svg">
<rect width="31" height="31" fill="#FF06C8"/>
<path d="M8.49334 16.5811L20.4837 16.5811L16.8138 20.989C16.6422 21.1955 16.5596 21.4617 16.5843 21.729C16.6089 21.9963 16.7388 22.2429 16.9452 22.4145C17.1517 22.5861 17.4179 22.6687 17.6852 22.644C17.9525 22.6194 18.1991 22.4896 18.3707 22.2831L23.4257 16.2172C23.4597 16.1689 23.4901 16.1182 23.5167 16.0655C23.5167 16.015 23.5167 15.9846 23.5874 15.9341C23.6333 15.8182 23.6573 15.6948 23.6582 15.5701C23.6573 15.4455 23.6333 15.3221 23.5874 15.2062C23.5874 15.1556 23.5874 15.1253 23.5167 15.0747C23.4901 15.022 23.4597 14.9713 23.4257 14.9231L18.3707 8.85714C18.2757 8.74302 18.1566 8.65124 18.0221 8.58833C17.8875 8.52543 17.7408 8.49294 17.5923 8.49318C17.356 8.49272 17.1271 8.57499 16.9452 8.72571C16.8429 8.81058 16.7582 8.91482 16.6962 9.03244C16.6342 9.15007 16.596 9.27877 16.5838 9.41119C16.5715 9.54361 16.5856 9.67713 16.6251 9.80411C16.6645 9.9311 16.7287 10.049 16.8138 10.1512L20.4837 14.5591L8.49334 14.5591C8.22521 14.5591 7.96806 14.6656 7.77846 14.8552C7.58887 15.0448 7.48235 15.302 7.48235 15.5701C7.48235 15.8382 7.58887 16.0954 7.77846 16.285C7.96806 16.4746 8.22521 16.5811 8.49334 16.5811Z" fill="white"/>
</svg>
