<svg width="974" height="528" viewBox="0 0 974 528" fill="none" xmlns="http://www.w3.org/2000/svg">
<g filter="url(#filter0_f_201_5460)">
<path d="M876.197 263.971C876.197 172.015 791.578 97.4707 687.197 97.4707L687.197 430.471C791.578 430.471 876.197 355.926 876.197 263.971Z" fill="#0AD3FF"/>
<path d="M759.713 300.658C758.487 300.673 757.295 300.257 756.343 299.484C755.807 299.049 755.363 298.512 755.035 297.905C754.707 297.298 754.502 296.631 754.432 295.945C754.361 295.258 754.428 294.564 754.626 293.903C754.824 293.242 755.151 292.626 755.588 292.092L778.82 263.732L755.872 235.776C755.43 235.243 755.099 234.629 754.896 233.968C754.693 233.307 754.623 232.612 754.689 231.924C754.755 231.236 754.957 230.567 755.282 229.957C755.608 229.347 756.051 228.807 756.586 228.369C757.124 227.886 757.756 227.519 758.443 227.292C759.13 227.065 759.856 226.982 760.576 227.049C761.296 227.116 761.995 227.331 762.628 227.68C763.261 228.03 763.815 228.507 764.255 229.08L789.912 260.316C790.693 261.248 791.127 262.421 791.139 263.637C791.151 264.852 790.741 266.034 789.978 266.981L764.05 298.726C763.53 299.366 762.866 299.875 762.113 300.211C761.359 300.546 760.537 300.7 759.713 300.658Z" fill="white"/>
</g>
<path d="M876.197 263.971C876.197 172.015 791.578 97.4707 687.197 97.4707L687.197 430.471C791.578 430.471 876.197 355.926 876.197 263.971Z" fill="#0AD3FF"/>
<g filter="url(#filter1_f_201_5460)">
<path d="M759.713 300.658C758.487 300.673 757.295 300.257 756.343 299.484C755.807 299.049 755.363 298.512 755.035 297.905C754.707 297.298 754.502 296.631 754.432 295.945C754.361 295.258 754.428 294.564 754.626 293.903C754.824 293.242 755.151 292.626 755.588 292.092L778.82 263.732L755.872 235.776C755.43 235.243 755.099 234.629 754.896 233.968C754.693 233.307 754.623 232.612 754.689 231.924C754.755 231.236 754.957 230.567 755.282 229.957C755.608 229.347 756.051 228.807 756.586 228.369C757.124 227.886 757.756 227.519 758.443 227.292C759.13 227.065 759.856 226.982 760.576 227.049C761.296 227.116 761.995 227.331 762.628 227.68C763.261 228.03 763.815 228.507 764.255 229.08L789.912 260.316C790.693 261.248 791.127 262.421 791.139 263.637C791.151 264.852 790.741 266.034 789.978 266.981L764.05 298.726C763.53 299.366 762.866 299.875 762.113 300.211C761.359 300.546 760.537 300.7 759.713 300.658Z" fill="white"/>
</g>
<path d="M759.713 300.658C758.487 300.673 757.295 300.257 756.343 299.484C755.807 299.049 755.363 298.512 755.035 297.905C754.707 297.298 754.502 296.631 754.432 295.945C754.361 295.258 754.428 294.564 754.626 293.903C754.824 293.242 755.151 292.626 755.588 292.092L778.82 263.732L755.872 235.776C755.43 235.243 755.099 234.629 754.896 233.968C754.693 233.307 754.623 232.612 754.689 231.924C754.755 231.236 754.957 230.567 755.282 229.957C755.608 229.347 756.051 228.807 756.586 228.369C757.124 227.886 757.756 227.519 758.443 227.292C759.13 227.065 759.856 226.982 760.576 227.049C761.296 227.116 761.995 227.331 762.628 227.68C763.261 228.03 763.815 228.507 764.255 229.08L789.912 260.316C790.693 261.248 791.127 262.421 791.139 263.637C791.151 264.852 790.741 266.034 789.978 266.981L764.05 298.726C763.53 299.366 762.866 299.875 762.113 300.211C761.359 300.546 760.537 300.7 759.713 300.658Z" fill="white"/>
<defs>
<filter id="filter0_f_201_5460" x="590.197" y="0.470703" width="383" height="527" filterUnits="userSpaceOnUse" color-interpolation-filters="sRGB">
<feFlood flood-opacity="0" result="BackgroundImageFix"/>
<feBlend mode="normal" in="SourceGraphic" in2="BackgroundImageFix" result="shape"/>
<feGaussianBlur stdDeviation="48.5" result="effect1_foregroundBlur_201_5460"/>
</filter>
<filter id="filter1_f_201_5460" x="724.404" y="197.027" width="96.7346" height="133.638" filterUnits="userSpaceOnUse" color-interpolation-filters="sRGB">
<feFlood flood-opacity="0" result="BackgroundImageFix"/>
<feBlend mode="normal" in="SourceGraphic" in2="BackgroundImageFix" result="shape"/>
<feGaussianBlur stdDeviation="15" result="effect1_foregroundBlur_201_5460"/>
</filter>
</defs>
</svg>
