<svg width="1440" height="762" viewBox="0 0 1440 762" fill="none" xmlns="http://www.w3.org/2000/svg">
<g filter="url(#filter0_f_60_148)">
<path d="M0.0824585 562.689C68.2797 562.36 136.003 557.728 203.839 553.44C237.118 551.338 270.438 549.376 303.83 548.24C330.89 547.322 361.024 544.737 387.403 550.167C458.653 564.84 512.66 614.907 561.696 650.251C602.091 679.366 661.956 729.082 728.255 727.982C761.74 727.429 787.553 710.044 808.188 693.948C839.054 669.871 863.433 642.025 887.585 614.753C912.284 586.857 936.013 558.499 962.908 531.535C985.905 508.475 1013.64 480.271 1052.64 468.597C1111.07 451.107 1187.58 484.426 1235.44 503.885C1298.76 529.622 1362.22 560.804 1438.52 562.682" stroke="white" stroke-width="4" stroke-miterlimit="10"/>
<path d="M0.0824585 548.808C69.1666 548.261 136.549 539.278 204.313 531.024C260.723 524.157 331.2 511.495 388.135 521.655C456.425 533.841 510.608 576.192 560.758 607.584C602.442 633.679 663.162 676.472 726.007 674.349C761.895 673.137 786.924 651.267 806.322 633.105C838.095 603.352 862.34 569.893 886.554 537.141C911.51 503.387 935.384 469.199 962.754 436.3C984.874 409.715 1011.62 374.973 1053.16 360.034C1122.83 334.983 1198.56 402.981 1235.78 432.832C1265.94 457.028 1294.69 482.177 1327.35 504.88C1358.45 526.497 1392.6 546.397 1438.49 548.808" stroke="white" stroke-width="4" stroke-miterlimit="10"/>
<path d="M0.0824585 536.615C70.466 535.725 137.302 522.209 204.788 509.946C261.744 499.596 329.508 485.386 388.868 494.096C454.115 503.668 508.453 538.234 559.778 565.191C602.545 587.649 664.668 623.799 723.677 620.344C761.926 618.109 786.295 590.76 804.393 570.783C836.888 534.906 861.102 495.553 885.492 456.937C910.727 416.975 934.807 376.606 962.599 337.415C984.204 306.933 1009.74 265.584 1053.72 246.566C1083.96 233.491 1113.77 244.836 1136.95 259.81C1179.23 287.117 1208 324.62 1236.15 358.801C1266.14 395.224 1294.18 432.53 1327.5 467.637C1354.02 495.588 1386.22 529.959 1438.51 534.927" stroke="white" stroke-width="4" stroke-miterlimit="10"/>
<path d="M0.0824585 520.268C72.0747 519.027 138.313 500.9 205.303 484.762C262.786 470.909 327.755 455.269 389.672 462.556C451.96 469.886 506.318 497.025 558.799 519.322C602.854 538.038 665.699 567.517 721.274 563.348C761.699 560.314 785.284 528.088 802.403 506.611C835.548 465.044 859.803 420.156 884.388 376.038C909.922 330.225 934.229 284.041 962.413 238.936C983.668 204.923 1008.03 157.456 1054.26 134.802C1087.2 118.664 1116.54 135.79 1137.51 153.889C1182.07 192.338 1208.97 241.262 1236.5 285.94C1266.38 334.416 1293.99 383.669 1327.63 431.031C1350.55 463.299 1380.5 513.401 1438.51 521.031" stroke="white" stroke-width="4" stroke-miterlimit="10"/>
<path d="M0.0824585 506.863C137.158 503.366 250.71 420.513 390.229 432.538C449.784 437.674 504.317 457.546 557.912 474.665C603.205 489.128 666.926 512.181 719.294 507.269C761.648 503.296 784.665 465.955 800.732 443.111C834.135 395.638 858.689 345.326 883.491 295.561C909.283 243.82 933.806 191.728 962.331 140.639C976.046 116.064 990.412 91.4761 1008.21 68.1071C1020.23 52.3339 1034.01 34.3674 1054.77 22.9387C1090.36 3.34656 1119.34 27.6265 1138.03 47.8143C1184.15 97.6635 1209.59 157.589 1236.83 212.981C1266.61 273.537 1293.96 334.766 1327.76 394.376C1343.13 421.501 1359.2 449.355 1382.09 474.055C1396.78 489.898 1411.24 502.546 1438.49 507.15" stroke="white" stroke-width="4" stroke-miterlimit="10"/>
</g>
<path d="M0.0824585 562.689C68.2797 562.36 136.003 557.728 203.839 553.44C237.118 551.338 270.438 549.376 303.83 548.24C330.89 547.322 361.024 544.737 387.403 550.167C458.653 564.84 512.66 614.907 561.696 650.251C602.091 679.366 661.956 729.082 728.255 727.982C761.74 727.429 787.553 710.044 808.188 693.948C839.054 669.871 863.433 642.025 887.585 614.753C912.284 586.857 936.013 558.499 962.908 531.535C985.905 508.475 1013.64 480.271 1052.64 468.597C1111.07 451.107 1187.58 484.426 1235.44 503.885C1298.76 529.622 1362.22 560.804 1438.52 562.682" stroke="white" stroke-width="4" stroke-miterlimit="10"/>
<path d="M0.0824585 548.808C69.1666 548.261 136.549 539.278 204.313 531.024C260.723 524.157 331.2 511.495 388.135 521.655C456.425 533.841 510.608 576.192 560.758 607.584C602.442 633.679 663.162 676.472 726.007 674.349C761.895 673.137 786.924 651.267 806.322 633.105C838.095 603.352 862.34 569.893 886.554 537.141C911.51 503.387 935.384 469.199 962.754 436.3C984.874 409.715 1011.62 374.973 1053.16 360.034C1122.83 334.983 1198.56 402.981 1235.78 432.832C1265.94 457.028 1294.69 482.177 1327.35 504.88C1358.45 526.497 1392.6 546.397 1438.49 548.808" stroke="white" stroke-width="4" stroke-miterlimit="10"/>
<path d="M0.0824585 536.615C70.466 535.725 137.302 522.209 204.788 509.946C261.744 499.596 329.508 485.386 388.868 494.096C454.115 503.668 508.453 538.234 559.778 565.191C602.545 587.649 664.668 623.799 723.677 620.344C761.926 618.109 786.295 590.76 804.393 570.783C836.888 534.906 861.102 495.553 885.492 456.937C910.727 416.975 934.807 376.606 962.599 337.415C984.204 306.933 1009.74 265.584 1053.72 246.566C1083.96 233.491 1113.77 244.836 1136.95 259.81C1179.23 287.117 1208 324.62 1236.15 358.801C1266.14 395.224 1294.18 432.53 1327.5 467.637C1354.02 495.588 1386.22 529.959 1438.51 534.927" stroke="white" stroke-width="4" stroke-miterlimit="10"/>
<path d="M0.0824585 520.268C72.0747 519.027 138.313 500.9 205.303 484.762C262.786 470.909 327.755 455.269 389.672 462.556C451.96 469.886 506.318 497.025 558.799 519.322C602.854 538.038 665.699 567.517 721.274 563.348C761.699 560.314 785.284 528.088 802.403 506.611C835.548 465.044 859.803 420.156 884.388 376.038C909.922 330.225 934.229 284.041 962.413 238.936C983.668 204.923 1008.03 157.456 1054.26 134.802C1087.2 118.664 1116.54 135.79 1137.51 153.889C1182.07 192.338 1208.97 241.262 1236.5 285.94C1266.38 334.416 1293.99 383.669 1327.63 431.031C1350.55 463.299 1380.5 513.401 1438.51 521.031" stroke="white" stroke-width="4" stroke-miterlimit="10"/>
<path d="M0.0824585 506.863C137.158 503.366 250.71 420.513 390.229 432.538C449.784 437.674 504.317 457.546 557.912 474.665C603.205 489.128 666.926 512.181 719.294 507.269C761.648 503.296 784.665 465.955 800.732 443.111C834.135 395.638 858.689 345.326 883.491 295.561C909.283 243.82 933.806 191.728 962.331 140.639C976.046 116.064 990.412 91.4761 1008.21 68.1071C1020.23 52.3339 1034.01 34.3674 1054.77 22.9387C1090.36 3.34656 1119.34 27.6265 1138.03 47.8143C1184.15 97.6635 1209.59 157.589 1236.83 212.981C1266.61 273.537 1293.96 334.766 1327.76 394.376C1343.13 421.501 1359.2 449.355 1382.09 474.055C1396.78 489.898 1411.24 502.546 1438.49 507.15" stroke="white" stroke-width="4" stroke-miterlimit="10"/>
<defs>
<filter id="filter0_f_60_148" x="-12.9686" y="0.711121" width="1464.8" height="742.289" filterUnits="userSpaceOnUse" color-interpolation-filters="sRGB">
<feFlood flood-opacity="0" result="BackgroundImageFix"/>
<feBlend mode="normal" in="SourceGraphic" in2="BackgroundImageFix" result="shape"/>
<feGaussianBlur stdDeviation="6.5" result="effect1_foregroundBlur_60_148"/>
</filter>
</defs>
</svg>
