<svg width="128" height="128" viewBox="0 0 128 128" fill="none" xmlns="http://www.w3.org/2000/svg">
<path d="M74.2866 27.3433C75.5127 27.3288 76.7051 27.7441 77.657 28.5171C78.1927 28.9524 78.6373 29.4891 78.9653 30.0965C79.2933 30.7039 79.4982 31.37 79.5683 32.0567C79.6385 32.7434 79.5725 33.4372 79.3741 34.0983C79.1757 34.7595 78.8489 35.375 78.4122 35.9096L55.1803 64.2692L78.1284 92.2255C78.5696 92.758 78.9012 93.3724 79.1042 94.0334C79.3072 94.6945 79.3775 95.3891 79.3111 96.0775C79.2448 96.7658 79.043 97.4342 78.7175 98.0443C78.392 98.6544 77.9491 99.1941 77.4143 99.6325C76.876 100.116 76.2438 100.482 75.5571 100.709C74.8705 100.936 74.1443 101.019 73.4241 100.952C72.704 100.886 72.0054 100.671 71.3723 100.321C70.7391 99.9715 70.1851 99.4948 69.7449 98.921L44.0878 67.6851C43.3067 66.7537 42.8731 65.5801 42.8611 64.3646C42.8491 63.1491 43.2595 61.9671 44.022 61.0205L69.9496 29.2755C70.4698 28.6352 71.1336 28.1266 71.8871 27.7909C72.6406 27.4552 73.4627 27.3018 74.2866 27.3433Z" fill="white"/>
</svg>
