<svg width="1439" height="725" viewBox="0 0 1439 725" fill="none" xmlns="http://www.w3.org/2000/svg">
<g clip-path="url(#clip0_56_239)">
<path d="M0.0824585 529.391C67.8878 529.464 135.683 529.365 203.488 529.279C236.746 529.24 270.015 529.2 303.273 529.2C330.24 529.2 360.869 526.675 386.846 532.404C424.395 540.684 454.837 560.759 481.207 578.889C509.721 598.495 535.781 619.512 562.573 640.068C601.699 670.09 660.533 723.523 730.215 723.681C798.567 723.84 852.718 670.209 888.472 639.989C931.527 603.598 980.832 547.699 1052.12 531.883C1077.45 526.266 1108.9 528.627 1135.34 528.6C1168.59 528.567 1201.85 528.752 1235.12 528.976C1302.93 529.431 1370.72 529.965 1438.53 529.391" stroke="white" stroke-width="4" stroke-miterlimit="10"/>
<path d="M0.0824585 516.325C68.2797 516.015 136.003 511.657 203.839 507.623C237.118 505.645 270.438 503.799 303.83 502.731C330.89 501.867 361.024 499.435 387.403 504.544C458.653 518.349 512.66 565.453 561.696 598.706C602.091 626.098 661.956 672.873 728.255 671.837C761.74 671.317 787.553 654.96 808.188 639.817C839.054 617.165 863.433 590.966 887.585 565.308C912.284 539.063 936.013 512.383 962.908 487.014C985.905 465.318 1013.64 438.783 1052.64 427.8C1111.07 411.345 1187.58 442.692 1235.44 461C1298.76 485.215 1362.22 514.552 1438.52 516.318" stroke="white" stroke-width="4" stroke-miterlimit="10"/>
<path d="M0.0824585 503.265C69.1666 502.751 136.549 494.299 204.313 486.533C260.723 480.072 331.2 468.159 388.135 477.719C456.425 489.183 510.608 529.029 560.758 558.564C602.442 583.114 663.162 623.375 726.007 621.378C761.895 620.237 786.924 599.662 806.322 582.574C838.095 554.582 862.34 523.102 886.554 492.288C911.51 460.532 935.384 428.367 962.754 397.414C984.874 372.402 1011.62 339.716 1053.16 325.661C1122.83 302.092 1198.56 366.067 1235.78 394.151C1265.94 416.915 1294.69 440.576 1327.35 461.936C1358.45 482.274 1392.6 500.997 1438.49 503.265" stroke="white" stroke-width="4" stroke-miterlimit="10"/>
<path d="M0.0824585 491.794C70.466 490.957 137.302 478.239 204.788 466.702C261.744 456.965 329.508 443.595 388.868 451.79C454.115 460.795 508.453 493.317 559.778 518.678C602.545 539.808 664.668 573.819 723.677 570.569C761.926 568.466 786.295 542.735 804.393 523.939C836.888 490.185 861.102 453.161 885.492 416.83C910.727 379.232 934.807 341.252 962.599 304.38C984.204 275.702 1009.74 236.799 1053.72 218.907C1083.96 206.605 1113.77 217.279 1136.95 231.367C1179.23 257.058 1208 292.342 1236.15 324.5C1266.14 358.769 1294.18 393.868 1327.5 426.896C1354.02 453.194 1386.22 485.531 1438.51 490.205" stroke="white" stroke-width="4" stroke-miterlimit="10"/>
<path d="M0.0824585 476.413C72.0747 475.247 138.313 458.191 205.303 443.009C262.786 429.975 327.755 415.261 389.672 422.117C451.96 429.013 506.318 454.546 558.799 475.523C602.854 493.132 665.699 520.867 721.274 516.945C761.699 514.09 785.284 483.771 802.403 463.564C835.548 424.457 859.803 382.225 884.388 340.718C909.922 297.616 934.229 254.164 962.413 211.728C983.668 179.727 1008.03 135.069 1054.26 113.755C1087.2 98.5724 1116.54 114.685 1137.51 131.713C1182.07 167.887 1208.97 213.916 1236.5 255.951C1266.38 301.558 1293.99 347.897 1327.63 392.457C1350.55 422.816 1380.5 469.953 1438.51 477.132" stroke="white" stroke-width="4" stroke-miterlimit="10"/>
<path d="M0.0824585 463.802C137.158 460.512 250.71 382.561 390.229 393.874C449.784 398.707 504.317 417.403 557.912 433.509C603.205 447.116 666.926 468.806 719.294 464.184C761.648 460.446 784.665 425.314 800.732 403.822C834.135 359.158 858.689 311.823 883.491 265.002C909.283 216.323 933.806 167.313 962.331 119.247C976.046 96.1265 990.412 72.9931 1008.21 51.0069C1020.23 36.1669 1034.01 19.2635 1054.77 8.51104C1090.36 -9.92184 1119.34 12.9215 1138.03 31.9147C1184.15 78.8144 1209.59 135.194 1236.83 187.309C1266.61 244.282 1293.96 301.888 1327.76 357.971C1343.13 383.491 1359.2 409.696 1382.09 432.935C1396.78 447.841 1411.24 459.741 1438.49 464.072" stroke="white" stroke-width="4" stroke-miterlimit="10"/>
</g>
<defs>
<clipPath id="clip0_56_239">
<rect width="1439" height="725" fill="white"/>
</clipPath>
</defs>
</svg>
