<svg width="1440" height="259" viewBox="0 0 1440 259" fill="none" xmlns="http://www.w3.org/2000/svg">
<path d="M0.0825806 197.805C68.3272 197.685 136.087 196.031 203.981 194.5C237.282 193.749 270.626 193.049 304.031 192.643C331.11 192.315 361.264 191.392 387.621 193.331C458.92 198.57 512.955 216.447 562.025 229.07C602.458 239.465 662.354 257.214 728.7 256.821C762.208 256.624 788.049 250.416 808.688 244.672C839.575 236.075 863.971 226.132 888.15 216.4C912.918 206.439 936.653 196.314 963.485 186.686C986.508 178.452 1014.26 168.382 1053.27 164.213C1111.73 157.971 1188.29 169.865 1236.19 176.813C1299.55 186.003 1363.06 197.137 1439.4 197.81" stroke="white" stroke-width="3.42917" stroke-miterlimit="10"/>
<path d="M0.0825806 192.846C69.225 192.651 136.644 189.443 204.414 186.496C260.863 184.044 331.347 179.523 388.374 183.151C456.712 187.502 510.932 202.624 561.117 213.833C602.86 223.157 663.623 238.419 726.502 237.669C762.414 237.236 787.471 229.427 806.872 222.942C838.667 212.316 862.929 200.372 887.16 188.678C912.144 176.626 936.034 164.408 963.423 152.672C985.548 143.179 1012.33 130.774 1053.9 125.44C1123.61 116.496 1199.4 140.775 1236.64 151.433C1266.82 160.072 1295.6 169.055 1328.28 177.159C1359.4 184.877 1393.58 191.983 1439.5 192.843" stroke="white" stroke-width="3.42917" stroke-miterlimit="10"/>
<path d="M0.0825806 188.492C70.515 188.172 137.397 183.348 204.93 178.97C261.926 175.272 329.737 170.213 389.138 173.31C454.431 176.728 508.847 189.073 560.167 198.696C602.974 206.702 665.13 219.622 724.18 218.389C762.466 217.59 786.841 207.825 804.952 200.692C837.47 187.882 861.711 173.831 886.107 160.042C911.37 145.781 935.467 131.36 963.268 117.364C984.94 106.483 1010.45 91.7159 1054.45 84.9256C1084.71 80.2569 1114.55 84.3076 1137.75 89.6568C1180.07 99.4145 1208.85 112.798 1237.01 125C1267.03 138.01 1295.08 151.328 1328.42 163.861C1354.97 173.841 1387.18 186.128 1439.5 187.879" stroke="white" stroke-width="3.42917" stroke-miterlimit="10"/>
<path d="M0.0825806 182.655C72.1249 182.215 138.367 175.742 205.446 169.978C262.968 165.031 327.983 159.447 389.943 162.049C452.274 164.664 506.67 174.356 559.187 182.315C603.273 188.995 666.162 199.524 721.775 198.035C762.239 196.952 785.83 185.445 802.971 177.769C836.128 162.925 860.4 146.9 885.003 131.145C910.555 114.787 934.878 98.2962 963.082 82.191C984.362 70.0463 1008.74 53.0979 1054.99 45.0115C1087.95 39.257 1117.31 45.3618 1138.31 51.8269C1182.9 65.5553 1209.82 83.0216 1237.38 98.9767C1267.31 116.285 1294.91 133.872 1328.58 150.783C1351.51 162.292 1381.48 180.191 1439.52 182.918" stroke="white" stroke-width="3.42917" stroke-miterlimit="10"/>
<path d="M0.0825806 177.872C137.243 176.621 250.853 147.04 390.5 151.333C450.097 153.165 504.668 160.26 558.3 166.372C603.624 171.537 667.39 179.768 719.794 178.014C762.187 176.596 785.211 163.265 801.32 155.109C834.745 138.155 859.307 120.191 884.136 102.422C909.935 83.9473 934.486 65.3501 963.03 47.1057C976.756 38.3338 991.131 29.5518 1008.94 21.2077C1020.98 15.5758 1034.74 9.16319 1055.54 5.08246C1091.15 -1.92308 1120.15 6.75628 1138.85 13.9645C1185.01 31.7636 1210.47 53.163 1237.72 72.9386C1267.53 94.5607 1294.89 116.425 1328.71 137.707C1344.1 147.392 1360.18 157.34 1383.09 166.157C1397.78 171.817 1412.25 176.33 1439.53 177.974" stroke="white" stroke-width="3.42917" stroke-miterlimit="10"/>
</svg>
