<svg width="1435" height="259" viewBox="0 0 1435 259" fill="none" xmlns="http://www.w3.org/2000/svg">
<path d="M0.0822754 197.805C68.0899 197.685 135.614 196.031 203.272 194.5C236.459 193.749 269.686 193.049 302.975 192.643C329.96 192.315 360.01 191.392 386.275 193.331C457.327 198.57 511.173 216.447 560.073 229.07C600.366 239.465 660.054 257.214 726.169 256.821C759.561 256.624 785.312 250.416 805.88 244.672C836.66 236.075 860.971 226.132 885.066 216.4C909.748 206.439 933.401 196.314 960.139 186.686C983.083 178.452 1010.74 168.382 1049.61 164.213C1107.87 157.971 1184.16 169.865 1231.9 176.813C1295.04 186.003 1358.32 197.137 1434.4 197.81" stroke="#FF06C8" stroke-width="3.42917" stroke-miterlimit="10"/>
<path d="M0.0822754 192.846C68.9846 192.651 136.17 189.443 203.704 186.496C259.957 184.044 330.197 179.523 387.026 183.151C455.126 187.502 509.158 202.624 559.168 213.833C600.767 223.157 661.319 238.419 723.979 237.669C759.767 237.236 784.736 229.427 804.07 222.942C835.755 212.316 859.933 200.372 884.079 188.678C908.977 176.626 932.784 164.408 960.077 152.672C982.126 143.179 1008.81 130.774 1050.24 125.44C1119.7 116.496 1195.24 140.775 1232.34 151.433C1262.43 160.072 1291.1 169.055 1323.67 177.159C1354.68 184.877 1388.74 191.983 1434.51 192.843" stroke="#FF06C8" stroke-width="3.42917" stroke-miterlimit="10"/>
<path d="M0.0822754 188.492C70.2701 188.172 136.92 183.348 204.218 178.97C261.017 175.272 328.592 170.213 387.787 173.31C452.853 176.728 507.08 189.073 558.222 198.696C600.88 206.702 662.82 219.622 721.665 218.389C759.818 217.59 784.109 207.825 802.157 200.692C834.562 187.882 858.719 173.831 883.03 160.042C908.205 145.781 932.218 131.36 959.923 117.364C981.52 106.483 1006.94 91.7159 1050.79 84.9256C1080.94 80.2569 1110.68 84.3076 1133.8 89.6568C1175.97 99.4145 1204.65 112.798 1232.71 125C1262.63 138.01 1290.58 151.328 1323.81 163.861C1350.26 173.841 1382.37 186.128 1434.51 187.879" stroke="#FF06C8" stroke-width="3.42917" stroke-miterlimit="10"/>
<path d="M0.0822754 182.655C71.8744 182.215 137.887 175.742 204.733 169.978C262.055 165.031 326.844 159.447 388.589 162.049C450.704 164.664 504.911 174.356 557.245 182.315C601.178 188.995 663.849 199.524 719.269 198.035C759.592 196.952 783.101 185.445 800.183 177.769C833.225 162.925 857.413 146.9 881.93 131.145C907.393 114.787 931.632 98.2962 959.738 82.191C980.944 70.0463 1005.23 53.0979 1051.33 45.0115C1084.17 39.257 1113.43 45.3618 1134.36 51.8269C1178.8 65.5553 1205.62 83.0216 1233.09 98.9767C1262.91 116.285 1290.42 133.872 1323.96 150.783C1346.82 162.292 1376.68 180.191 1434.52 182.918" stroke="#FF06C8" stroke-width="3.42917" stroke-miterlimit="10"/>
<path d="M0.0822754 177.872C136.766 176.621 249.982 147.04 389.144 151.333C448.534 153.165 502.915 160.26 556.361 166.373C601.528 171.537 665.072 179.768 717.294 178.014C759.541 176.596 782.484 163.265 798.537 155.109C831.847 138.155 856.323 120.191 881.066 102.422C906.776 83.9474 931.241 65.3502 959.687 47.1058C973.364 38.3338 987.69 29.5519 1005.44 21.2078C1017.43 15.5758 1031.15 9.16325 1051.87 5.08252C1087.36 -1.92302 1116.26 6.75635 1134.89 13.9645C1180.89 31.7636 1206.26 53.163 1233.42 72.9387C1263.12 94.5608 1290.4 116.426 1324.1 137.707C1339.43 147.393 1355.45 157.34 1378.28 166.157C1392.93 171.817 1407.35 176.33 1434.53 177.974" stroke="#FF06C8" stroke-width="3.42917" stroke-miterlimit="10"/>
</svg>
