<svg width="1439" height="242" viewBox="0 0 1439 242" fill="none" xmlns="http://www.w3.org/2000/svg">
<g clip-path="url(#clip0_60_2426)">
<path d="M0.0825806 172.308C68.3272 172.203 136.087 170.747 203.981 169.4C237.282 168.739 270.626 168.123 304.031 167.766C331.11 167.478 361.264 166.665 387.621 168.372C458.92 172.982 512.955 188.713 562.025 199.821C602.458 208.969 662.354 224.589 728.7 224.243C762.208 224.069 788.049 218.606 808.688 213.551C839.575 205.986 863.971 197.236 888.15 188.672C912.918 179.906 936.653 170.996 963.485 162.524C986.508 155.278 1014.26 146.416 1053.27 142.748C1111.73 137.254 1188.29 147.721 1236.19 153.836C1299.55 161.923 1363.06 171.72 1439.4 172.313" stroke="white" stroke-width="3.42917" stroke-miterlimit="10"/>
<path d="M0.0825806 167.944C69.225 167.773 136.644 164.95 204.414 162.356C260.863 160.199 331.347 156.22 388.374 159.413C456.712 163.242 510.932 176.549 561.117 186.413C602.86 194.619 663.623 208.049 726.502 207.389C762.414 207.008 787.471 200.136 806.872 194.429C838.667 185.078 862.929 174.567 887.16 164.276C912.144 153.671 936.034 142.919 963.423 132.591C985.548 124.238 1012.33 113.321 1053.9 108.627C1123.61 100.756 1199.4 122.122 1236.64 131.501C1266.82 139.104 1295.6 147.008 1328.28 154.14C1359.4 160.932 1393.58 167.185 1439.5 167.942" stroke="white" stroke-width="3.42917" stroke-miterlimit="10"/>
<path d="M0.0825806 164.113C70.515 163.832 137.397 159.587 204.93 155.734C261.926 152.479 329.737 148.027 389.138 150.753C454.431 153.761 508.847 164.624 560.167 173.092C602.974 180.138 665.13 191.507 724.18 190.422C762.466 189.72 786.841 181.126 804.952 174.849C837.47 163.576 861.711 151.211 886.107 139.077C911.37 126.527 935.467 113.837 963.268 101.52C984.94 91.9447 1010.45 78.95 1054.45 72.9745C1084.71 68.8661 1114.55 72.4307 1137.75 77.138C1180.07 85.7248 1208.85 97.5019 1237.01 108.24C1267.03 119.689 1295.08 131.409 1328.42 142.437C1354.97 151.22 1387.18 162.033 1439.5 163.574" stroke="white" stroke-width="3.42917" stroke-miterlimit="10"/>
<path d="M0.0825806 158.977C72.1249 158.589 138.367 152.893 205.446 147.821C262.968 143.468 327.983 138.553 389.943 140.843C452.274 143.144 506.67 151.674 559.187 158.677C603.273 164.556 666.162 173.821 721.775 172.511C762.239 171.558 785.83 161.432 802.971 154.677C836.128 141.614 860.4 127.512 885.003 113.647C910.555 99.2523 934.878 84.7407 963.082 70.568C984.362 59.8808 1008.74 44.9662 1054.99 37.8502C1087.95 32.7862 1117.31 38.1584 1138.31 43.8477C1182.9 55.9287 1209.82 71.299 1237.38 85.3395C1267.31 100.571 1294.91 116.047 1328.58 130.929C1351.51 141.057 1381.48 156.808 1439.52 159.208" stroke="white" stroke-width="3.42917" stroke-miterlimit="10"/>
<path d="M0.0825806 154.767C137.243 153.666 250.853 127.635 390.5 131.413C450.097 133.025 504.668 139.269 558.3 144.648C603.624 149.192 667.39 156.436 719.794 154.892C762.187 153.644 785.211 141.913 801.32 134.736C834.745 119.817 859.307 104.008 884.136 88.3713C909.935 72.1136 934.486 55.7481 963.03 39.693C976.756 31.9737 991.131 24.2455 1008.94 16.9027C1020.98 11.9466 1034.74 6.30355 1055.54 2.71251C1091.15 -3.45236 1120.15 4.18548 1138.85 10.5287C1185.01 26.1919 1210.47 45.0234 1237.72 62.4259C1267.53 81.4534 1294.89 100.694 1328.71 119.422C1344.1 127.945 1360.18 136.699 1383.09 144.458C1397.78 149.439 1412.25 153.411 1439.53 154.857" stroke="white" stroke-width="3.42917" stroke-miterlimit="10"/>
</g>
<defs>
<clipPath id="clip0_60_2426">
<rect width="1440" height="242" fill="white"/>
</clipPath>
</defs>
</svg>
