<svg width="1440" height="275" viewBox="0 0 1440 275" fill="none" xmlns="http://www.w3.org/2000/svg">
<g clip-path="url(#clip0_60_2411)">
<path d="M0.0825806 195.805C68.3272 195.685 136.087 194.031 203.981 192.5C237.282 191.749 270.626 191.049 304.031 190.643C331.11 190.316 361.264 189.392 387.621 191.331C458.92 196.57 512.955 214.447 562.025 227.07C602.458 237.465 662.354 255.214 728.7 254.822C762.208 254.624 788.049 248.416 808.688 242.672C839.575 234.075 863.971 224.132 888.15 214.4C912.918 204.439 936.653 194.314 963.485 184.686C986.508 176.452 1014.26 166.382 1053.27 162.213C1111.73 155.971 1188.29 167.865 1236.19 174.813C1299.55 184.003 1363.06 195.137 1439.4 195.81" stroke="white" stroke-width="3.42917" stroke-miterlimit="10"/>
<path d="M0.0825806 190.846C69.225 190.651 136.644 187.443 204.414 184.496C260.863 182.044 331.347 177.523 388.374 181.151C456.712 185.502 510.932 200.624 561.117 211.833C602.86 221.157 663.623 236.419 726.502 235.669C762.414 235.236 787.471 227.427 806.872 220.942C838.667 210.316 862.929 198.372 887.16 186.678C912.144 174.626 936.034 162.408 963.423 150.672C985.548 141.179 1012.33 128.774 1053.9 123.44C1123.61 114.496 1199.4 138.775 1236.64 149.433C1266.82 158.073 1295.6 167.055 1328.28 175.159C1359.4 182.877 1393.58 189.983 1439.5 190.843" stroke="white" stroke-width="3.42917" stroke-miterlimit="10"/>
<path d="M0.0825806 186.493C70.515 186.172 137.397 181.348 204.93 176.97C261.926 173.272 329.737 168.213 389.138 171.311C454.431 174.728 508.847 187.073 560.167 196.696C602.974 204.702 665.13 217.622 724.18 216.389C762.466 215.591 786.841 205.825 804.952 198.692C837.47 185.882 861.711 171.831 886.107 158.043C911.37 143.781 935.467 129.36 963.268 115.364C984.94 104.483 1010.45 89.716 1054.45 82.9256C1084.71 78.2569 1114.55 82.3076 1137.75 87.6568C1180.07 97.4146 1208.85 110.798 1237.01 123C1267.03 136.01 1295.08 149.328 1328.42 161.861C1354.97 171.841 1387.18 184.128 1439.5 185.88" stroke="white" stroke-width="3.42917" stroke-miterlimit="10"/>
<path d="M0.0825806 180.655C72.1249 180.215 138.367 173.742 205.446 167.978C262.968 163.031 327.983 157.447 389.943 160.049C452.274 162.664 506.67 172.356 559.187 180.315C603.273 186.995 666.162 197.524 721.775 196.035C762.239 194.952 785.83 183.445 802.971 175.769C836.128 160.925 860.4 144.9 885.003 129.145C910.555 112.787 934.878 96.2962 963.082 80.1909C984.362 68.0463 1008.74 51.0979 1054.99 43.0115C1087.95 37.257 1117.31 43.3618 1138.31 49.8269C1182.9 63.5553 1209.82 81.0216 1237.38 96.9767C1267.31 114.285 1294.91 131.872 1328.58 148.783C1351.51 160.292 1381.48 178.191 1439.52 180.918" stroke="white" stroke-width="3.42917" stroke-miterlimit="10"/>
<path d="M0.0825806 175.872C137.243 174.621 250.853 145.04 390.5 149.333C450.097 151.165 504.668 158.26 558.3 164.372C603.624 169.537 667.39 177.768 719.794 176.014C762.187 174.596 785.211 161.265 801.32 153.109C834.745 136.155 859.307 118.191 884.136 100.422C909.935 81.9473 934.486 63.3501 963.03 45.1057C976.756 36.3337 991.131 27.5518 1008.94 19.2077C1020.98 13.5757 1034.74 7.16316 1055.54 3.08243C1091.15 -3.92311 1120.15 4.75625 1138.85 11.9645C1185.01 29.7635 1210.47 51.163 1237.72 70.9386C1267.53 92.5607 1294.89 114.425 1328.71 135.707C1344.1 145.392 1360.18 155.34 1383.09 164.157C1397.78 169.817 1412.25 174.33 1439.53 175.974" stroke="white" stroke-width="3.42917" stroke-miterlimit="10"/>
</g>
<defs>
<clipPath id="clip0_60_2411">
<rect width="1440" height="275" fill="white"/>
</clipPath>
</defs>
</svg>
