<svg width="1439" height="717" viewBox="0 0 1439 717" fill="none" xmlns="http://www.w3.org/2000/svg">
<path d="M0.0824585 549.689C68.2797 549.36 136.003 544.728 203.839 540.44C237.118 538.338 270.438 536.376 303.83 535.24C330.89 534.322 361.024 531.737 387.403 537.167C458.653 551.84 512.66 601.907 561.696 637.251C602.091 666.366 661.956 716.082 728.255 714.982C761.74 714.429 787.553 697.044 808.188 680.948C839.054 656.871 863.433 629.025 887.585 601.753C912.284 573.857 936.013 545.499 962.908 518.535C985.905 495.475 1013.64 467.271 1052.64 455.597C1111.07 438.107 1187.58 471.426 1235.44 490.885C1298.76 516.622 1362.22 547.804 1438.52 549.682" stroke="white" stroke-width="4" stroke-miterlimit="10"/>
<path d="M0.0824585 535.808C69.1666 535.261 136.549 526.278 204.313 518.024C260.723 511.157 331.2 498.495 388.135 508.655C456.425 520.841 510.608 563.192 560.758 594.584C602.442 620.679 663.162 663.472 726.007 661.349C761.895 660.137 786.924 638.267 806.322 620.105C838.095 590.352 862.34 556.893 886.554 524.141C911.51 490.387 935.384 456.199 962.754 423.3C984.874 396.715 1011.62 361.973 1053.16 347.034C1122.83 321.983 1198.56 389.981 1235.78 419.832C1265.94 444.028 1294.69 469.177 1327.35 491.88C1358.45 513.497 1392.6 533.397 1438.49 535.808" stroke="white" stroke-width="4" stroke-miterlimit="10"/>
<path d="M0.0824585 523.615C70.466 522.725 137.302 509.209 204.788 496.946C261.744 486.596 329.508 472.386 388.868 481.096C454.115 490.668 508.453 525.234 559.778 552.191C602.545 574.649 664.668 610.799 723.677 607.344C761.926 605.109 786.295 577.76 804.393 557.783C836.888 521.906 861.102 482.553 885.492 443.937C910.727 403.975 934.807 363.606 962.599 324.415C984.204 293.933 1009.74 252.584 1053.72 233.566C1083.96 220.491 1113.77 231.836 1136.95 246.81C1179.23 274.117 1208 311.62 1236.15 345.801C1266.14 382.224 1294.18 419.53 1327.5 454.637C1354.02 482.588 1386.22 516.959 1438.51 521.927" stroke="white" stroke-width="4" stroke-miterlimit="10"/>
<path d="M0.0824585 507.268C72.0747 506.027 138.313 487.9 205.303 471.762C262.786 457.909 327.755 442.269 389.672 449.556C451.96 456.886 506.318 484.025 558.799 506.322C602.854 525.038 665.699 554.517 721.274 550.348C761.699 547.314 785.284 515.088 802.403 493.611C835.548 452.044 859.803 407.156 884.388 363.038C909.922 317.225 934.229 271.041 962.413 225.936C983.668 191.923 1008.03 144.456 1054.26 121.802C1087.2 105.664 1116.54 122.79 1137.51 140.889C1182.07 179.338 1208.97 228.262 1236.5 272.94C1266.38 321.416 1293.99 370.669 1327.63 418.031C1350.55 450.299 1380.5 500.401 1438.51 508.031" stroke="white" stroke-width="4" stroke-miterlimit="10"/>
<path d="M0.0824585 493.863C137.158 490.366 250.71 407.513 390.229 419.538C449.784 424.674 504.317 444.546 557.912 461.665C603.205 476.128 666.926 499.181 719.294 494.269C761.648 490.296 784.665 452.955 800.732 430.111C834.135 382.638 858.689 332.326 883.491 282.561C909.283 230.82 933.806 178.728 962.331 127.639C976.046 103.064 990.412 78.4761 1008.21 55.1071C1020.23 39.3339 1034.01 21.3674 1054.77 9.93869C1090.36 -9.65344 1119.34 14.6265 1138.03 34.8143C1184.15 84.6635 1209.59 144.589 1236.83 199.981C1266.61 260.537 1293.96 321.766 1327.76 381.376C1343.13 408.501 1359.2 436.355 1382.09 461.055C1396.78 476.898 1411.24 489.546 1438.49 494.15" stroke="white" stroke-width="4" stroke-miterlimit="10"/>
</svg>
