<svg width="1440" height="182" viewBox="0 0 1440 182" fill="none" xmlns="http://www.w3.org/2000/svg">
<g clip-path="url(#clip0_101_478)">
<path d="M0.0825806 129.587C68.3272 129.508 136.087 128.413 203.981 127.4C237.282 126.903 270.626 126.439 304.031 126.171C331.11 125.954 361.264 125.343 387.621 126.627C458.92 130.094 512.954 141.925 562.025 150.279C602.458 157.159 662.354 168.905 728.7 168.646C762.208 168.515 788.049 164.407 808.688 160.605C839.575 154.915 863.971 148.335 888.15 141.894C912.918 135.302 936.653 128.6 963.485 122.229C986.508 116.779 1014.26 110.114 1053.27 107.356C1111.73 103.224 1188.29 111.096 1236.19 115.695C1299.55 121.777 1363.06 129.145 1439.4 129.591" stroke="white" stroke-width="3.42917" stroke-miterlimit="10"/>
<path d="M0.0825806 126.305C69.225 126.176 136.644 124.053 204.414 122.103C260.863 120.48 331.347 117.488 388.374 119.889C456.712 122.768 510.932 132.776 561.117 140.195C602.86 146.366 663.623 156.467 726.502 155.97C762.414 155.683 787.471 150.516 806.872 146.224C838.667 139.191 862.929 131.286 887.16 123.547C912.144 115.57 936.034 107.485 963.423 99.7173C985.548 93.4349 1012.33 85.2252 1053.9 81.6949C1123.61 75.7752 1199.4 91.8437 1236.64 98.8976C1266.82 104.615 1295.6 110.56 1328.28 115.923C1359.4 121.031 1393.58 125.734 1439.5 126.304" stroke="white" stroke-width="3.42917" stroke-miterlimit="10"/>
<path d="M0.0825806 123.424C70.515 123.212 137.397 120.02 204.93 117.122C261.926 114.675 329.737 111.326 389.138 113.376C454.431 115.638 508.847 123.808 560.167 130.177C602.974 135.475 665.13 144.026 724.18 143.21C762.466 142.682 786.841 136.219 804.952 131.498C837.47 123.02 861.711 113.721 886.107 104.595C911.37 95.157 935.467 85.6127 963.268 76.3498C984.94 69.1485 1010.45 59.3757 1054.45 54.8817C1084.71 51.7918 1114.55 54.4727 1137.75 58.0129C1180.07 64.4707 1208.85 73.3279 1237.01 81.4035C1267.03 90.0139 1295.08 98.8281 1328.42 107.122C1354.97 113.727 1387.18 121.859 1439.5 123.018" stroke="white" stroke-width="3.42917" stroke-miterlimit="10"/>
<path d="M0.0825806 119.561C72.1249 119.27 138.367 114.986 205.446 111.171C262.968 107.897 327.983 104.201 389.943 105.923C452.274 107.654 506.67 114.069 559.187 119.336C603.273 123.757 666.162 130.725 721.775 129.74C762.239 129.023 785.83 121.407 802.971 116.327C836.128 106.503 860.4 95.8972 885.003 85.4703C910.555 74.6443 934.878 63.7306 963.082 53.0718C984.362 45.0343 1008.74 33.8175 1054.99 28.4658C1087.95 24.6573 1117.31 28.6976 1138.31 32.9764C1182.9 42.062 1209.82 53.6216 1237.38 64.181C1267.31 75.6362 1294.91 87.2752 1328.58 98.4671C1351.51 106.084 1381.48 117.93 1439.52 119.735" stroke="white" stroke-width="3.42917" stroke-miterlimit="10"/>
<path d="M0.0825806 116.395C137.243 115.567 250.853 95.9899 390.5 98.8313C450.097 100.043 504.668 104.739 558.3 108.785C603.624 112.202 667.39 117.65 719.794 116.489C762.187 115.551 785.211 106.728 801.32 101.33C834.746 90.11 859.307 78.2209 884.136 66.461C909.935 54.2342 934.486 41.9262 963.031 29.8517C976.756 24.0463 991.131 18.2343 1008.94 12.712C1020.98 8.98465 1034.74 4.7407 1055.54 2.04C1091.15 -2.59639 1120.15 3.14777 1138.85 7.91828C1185.01 19.698 1210.47 33.8606 1237.72 46.9484C1267.53 61.2583 1294.89 75.7289 1328.71 89.8136C1344.1 96.2234 1360.18 102.807 1383.09 108.642C1397.78 112.388 1412.25 115.375 1439.53 116.463" stroke="white" stroke-width="3.42917" stroke-miterlimit="10"/>
</g>
<defs>
<clipPath id="clip0_101_478">
<rect width="1440" height="182" fill="white"/>
</clipPath>
</defs>
</svg>
