<svg width="334" height="334" viewBox="0 0 334 334" fill="none" xmlns="http://www.w3.org/2000/svg">
<g filter="url(#filter0_f_201_5769)">
<circle cx="167" cy="167" r="69" fill="#FF06C8"/>
<path d="M156.48 203.71C155.253 203.713 154.065 203.286 153.121 202.503C152.59 202.063 152.15 201.522 151.828 200.911C151.506 200.301 151.308 199.633 151.245 198.945C151.181 198.258 151.254 197.565 151.459 196.906C151.664 196.246 151.997 195.634 152.439 195.104L175.949 166.975L153.278 138.793C152.842 138.257 152.517 137.639 152.32 136.976C152.124 136.313 152.061 135.618 152.134 134.93C152.207 134.242 152.415 133.576 152.747 132.969C153.078 132.362 153.526 131.827 154.066 131.394C154.609 130.916 155.244 130.556 155.933 130.335C156.622 130.115 157.349 130.039 158.069 130.113C158.788 130.187 159.484 130.409 160.114 130.765C160.744 131.121 161.293 131.603 161.728 132.181L187.075 163.669C187.847 164.608 188.269 165.786 188.269 167.001C188.269 168.217 187.847 169.395 187.075 170.334L160.835 201.821C160.309 202.456 159.64 202.958 158.883 203.287C158.127 203.615 157.303 203.76 156.48 203.71Z" fill="white"/>
</g>
<circle cx="167" cy="167" r="69" fill="#FF06C8"/>
<path d="M153 148V185" stroke="white" stroke-width="10" stroke-linecap="round"/>
<path d="M181 148V185" stroke="white" stroke-width="10" stroke-linecap="round"/>
<defs>
<filter id="filter0_f_201_5769" x="0" y="0" width="334" height="334" filterUnits="userSpaceOnUse" color-interpolation-filters="sRGB">
<feFlood flood-opacity="0" result="BackgroundImageFix"/>
<feBlend mode="normal" in="SourceGraphic" in2="BackgroundImageFix" result="shape"/>
<feGaussianBlur stdDeviation="49" result="effect1_foregroundBlur_201_5769"/>
</filter>
</defs>
</svg>
