<svg width="1440" height="735" viewBox="0 0 1440 735" fill="none" xmlns="http://www.w3.org/2000/svg">
<g filter="url(#filter0_f_103_498)">
<path d="M0.0825195 534.325C68.2324 534.015 135.908 529.657 203.697 525.623C236.953 523.645 270.25 521.799 303.619 520.731C330.66 519.867 360.773 517.435 387.134 522.544C458.334 536.349 512.304 583.453 561.306 616.706C601.673 644.098 661.496 690.872 727.749 689.837C761.211 689.317 787.006 672.96 807.627 657.817C838.471 635.165 862.833 608.966 886.968 583.308C911.65 557.063 935.363 530.382 962.239 505.014C985.22 483.318 1012.93 456.783 1051.91 445.8C1110.3 429.344 1186.75 460.692 1234.58 479C1297.86 503.214 1361.28 532.551 1437.52 534.318" stroke="white" stroke-width="4" stroke-miterlimit="10"/>
<path d="M0.0825195 521.265C69.1186 520.751 136.454 512.299 204.171 504.533C260.542 498.072 330.969 486.159 387.866 495.719C456.108 507.183 510.253 547.029 560.368 576.564C602.023 601.114 662.701 641.375 725.503 639.378C761.366 638.237 786.377 617.662 805.761 600.574C837.513 572.582 861.741 541.102 885.938 510.288C910.877 478.532 934.734 446.367 962.085 415.414C984.19 390.402 1010.92 357.716 1052.43 343.661C1122.05 320.092 1197.73 384.067 1234.92 412.151C1265.06 434.915 1293.79 458.576 1326.42 479.936C1357.5 500.274 1391.64 518.997 1437.5 521.265" stroke="white" stroke-width="4" stroke-miterlimit="10"/>
<path d="M0.0825195 509.794C70.4171 508.957 137.207 496.239 204.645 484.702C261.562 474.965 329.279 461.595 388.597 469.79C453.8 478.795 508.099 511.317 559.389 536.678C602.126 557.808 664.206 591.819 723.174 588.569C761.397 586.466 785.748 560.735 803.834 541.939C836.307 508.185 860.504 471.161 884.876 434.83C910.094 397.232 934.157 359.252 961.93 322.38C983.52 293.702 1009.04 254.799 1052.99 236.907C1083.2 224.605 1113 235.279 1136.16 249.367C1178.41 275.058 1207.16 310.342 1235.29 342.5C1265.26 376.769 1293.28 411.868 1326.58 444.896C1353.08 471.194 1385.26 503.531 1437.51 508.205" stroke="white" stroke-width="4" stroke-miterlimit="10"/>
<path d="M0.0825195 494.413C72.0248 493.247 138.217 476.191 205.161 461.009C262.603 447.975 327.527 433.261 389.401 440.117C451.646 447.013 505.966 472.546 558.41 493.523C602.435 511.132 665.237 538.867 720.773 534.945C761.17 532.09 784.738 501.771 801.846 481.564C834.967 442.457 859.206 400.225 883.774 358.718C909.29 315.616 933.58 272.164 961.745 229.728C982.984 197.727 1007.33 153.069 1053.52 131.755C1086.44 116.572 1115.76 132.685 1136.72 149.713C1181.25 185.887 1208.13 231.916 1235.64 273.951C1265.5 319.558 1293.1 365.897 1326.71 410.457C1349.61 440.816 1379.54 487.953 1437.51 495.132" stroke="white" stroke-width="4" stroke-miterlimit="10"/>
<path d="M0.0825195 481.802C137.062 478.512 250.536 400.561 389.958 411.874C449.472 416.707 503.967 435.403 557.524 451.509C602.786 465.116 666.463 486.806 718.794 482.184C761.118 478.446 784.12 443.314 800.176 421.822C833.555 377.158 858.092 329.823 882.877 283.002C908.651 234.323 933.157 185.313 961.662 137.247C975.368 114.127 989.724 90.9931 1007.51 69.0069C1019.52 54.1669 1033.3 37.2635 1054.04 26.511C1089.6 8.07816 1118.56 30.9215 1137.24 49.9147C1183.33 96.8144 1208.75 153.194 1235.97 205.309C1265.73 262.282 1293.06 319.888 1326.84 375.971C1342.2 401.491 1358.26 427.696 1381.13 450.935C1395.81 465.841 1410.26 477.741 1437.5 482.072" stroke="white" stroke-width="4" stroke-miterlimit="10"/>
</g>
<path d="M0.0825195 534.325C68.2324 534.015 135.908 529.657 203.697 525.623C236.953 523.645 270.25 521.799 303.619 520.731C330.66 519.867 360.773 517.435 387.134 522.544C458.334 536.349 512.304 583.453 561.306 616.706C601.673 644.098 661.496 690.872 727.749 689.837C761.211 689.317 787.006 672.96 807.627 657.817C838.471 635.165 862.833 608.966 886.968 583.308C911.65 557.063 935.363 530.382 962.239 505.014C985.22 483.318 1012.93 456.783 1051.91 445.8C1110.3 429.344 1186.75 460.692 1234.58 479C1297.86 503.214 1361.28 532.551 1437.52 534.318" stroke="white" stroke-width="4" stroke-miterlimit="10"/>
<path d="M0.0825195 521.265C69.1186 520.751 136.454 512.299 204.171 504.533C260.542 498.072 330.969 486.159 387.866 495.719C456.108 507.183 510.253 547.029 560.368 576.564C602.023 601.114 662.701 641.375 725.503 639.378C761.366 638.237 786.377 617.662 805.761 600.574C837.513 572.582 861.741 541.102 885.938 510.288C910.877 478.532 934.734 446.367 962.085 415.414C984.19 390.402 1010.92 357.716 1052.43 343.661C1122.05 320.092 1197.73 384.067 1234.92 412.151C1265.06 434.915 1293.79 458.576 1326.42 479.936C1357.5 500.274 1391.64 518.997 1437.5 521.265" stroke="white" stroke-width="4" stroke-miterlimit="10"/>
<path d="M0.0825195 509.794C70.4171 508.957 137.207 496.239 204.645 484.702C261.562 474.965 329.279 461.595 388.597 469.79C453.8 478.795 508.099 511.317 559.389 536.678C602.126 557.808 664.206 591.819 723.174 588.569C761.397 586.466 785.748 560.735 803.834 541.939C836.307 508.185 860.504 471.161 884.876 434.83C910.094 397.232 934.157 359.252 961.93 322.38C983.52 293.702 1009.04 254.799 1052.99 236.907C1083.2 224.605 1113 235.279 1136.16 249.367C1178.41 275.058 1207.16 310.342 1235.29 342.5C1265.26 376.769 1293.28 411.868 1326.58 444.896C1353.08 471.194 1385.26 503.531 1437.51 508.205" stroke="white" stroke-width="4" stroke-miterlimit="10"/>
<path d="M0.0825195 494.413C72.0248 493.247 138.217 476.191 205.161 461.009C262.603 447.975 327.527 433.261 389.401 440.117C451.646 447.013 505.966 472.546 558.41 493.523C602.435 511.132 665.237 538.867 720.773 534.945C761.17 532.09 784.738 501.771 801.846 481.564C834.967 442.457 859.206 400.225 883.774 358.718C909.29 315.616 933.58 272.164 961.745 229.728C982.984 197.727 1007.33 153.069 1053.52 131.755C1086.44 116.572 1115.76 132.685 1136.72 149.713C1181.25 185.887 1208.13 231.916 1235.64 273.951C1265.5 319.558 1293.1 365.897 1326.71 410.457C1349.61 440.816 1379.54 487.953 1437.51 495.132" stroke="white" stroke-width="4" stroke-miterlimit="10"/>
<path d="M0.0825195 481.802C137.062 478.512 250.536 400.561 389.958 411.874C449.472 416.707 503.967 435.403 557.524 451.509C602.786 465.116 666.463 486.806 718.794 482.184C761.118 478.446 784.12 443.314 800.176 421.822C833.555 377.158 858.092 329.823 882.877 283.002C908.651 234.323 933.157 185.313 961.662 137.247C975.368 114.127 989.724 90.9931 1007.51 69.0069C1019.52 54.1669 1033.3 37.2635 1054.04 26.511C1089.6 8.07816 1118.56 30.9215 1137.24 49.9147C1183.33 96.8144 1208.75 153.194 1235.97 205.309C1265.73 262.282 1293.06 319.888 1326.84 375.971C1342.2 401.491 1358.26 427.696 1381.13 450.935C1395.81 465.841 1410.26 477.741 1437.5 482.072" stroke="white" stroke-width="4" stroke-miterlimit="10"/>
<defs>
<filter id="filter0_f_103_498" x="-16.9656" y="0.711121" width="1471.77" height="708.143" filterUnits="userSpaceOnUse" color-interpolation-filters="sRGB">
<feFlood flood-opacity="0" result="BackgroundImageFix"/>
<feBlend mode="normal" in="SourceGraphic" in2="BackgroundImageFix" result="shape"/>
<feGaussianBlur stdDeviation="8.5" result="effect1_foregroundBlur_103_498"/>
</filter>
</defs>
</svg>
