<svg width="95" height="74" viewBox="0 0 95 74" fill="none" xmlns="http://www.w3.org/2000/svg">
<g filter="url(#filter0_f_103_939)">
<path d="M64.75 48.4792C64.3496 48.4792 63.957 48.3855 63.6164 48.2085C63.2758 48.0316 63.0005 47.7784 62.8214 47.4773C62.6423 47.1762 62.5665 46.8392 62.6025 46.5039C62.6384 46.1687 62.7847 45.8485 63.025 45.5792C65.2231 43.1005 66.4104 40.0916 66.4104 37C66.4104 33.9085 65.2231 30.8996 63.025 28.4209C62.6819 28.0363 62.5346 27.5529 62.6154 27.0771C62.6963 26.6012 62.9988 26.1718 63.4563 25.8834C63.9138 25.595 64.4888 25.4711 65.0549 25.5391C65.6211 25.6071 66.1319 25.8613 66.475 26.2459C72.11 32.5775 72.11 41.4225 66.475 47.7542C66.0438 48.2375 65.4113 48.4792 64.75 48.4792Z" fill="#FF06C8"/>
<path d="M70.0055 54.5208C69.6051 54.5208 69.2125 54.4271 68.8719 54.2501C68.5313 54.0731 68.256 53.8199 68.0769 53.5189C67.8978 53.2178 67.822 52.8808 67.858 52.5455C67.8939 52.2103 68.0402 51.8901 68.2805 51.6208C75.9568 43.0175 75.9568 30.9825 68.2805 22.3791C67.9374 21.9946 67.79 21.5112 67.8709 21.0353C67.9518 20.5594 68.2543 20.13 68.7118 19.8416C69.1693 19.5532 69.7443 19.4294 70.3104 19.4973C70.8766 19.5653 71.3874 19.8196 71.7305 20.2041C80.5567 30.0883 80.5567 43.9116 71.7305 53.7958C71.328 54.2791 70.6667 54.5208 70.0055 54.5208ZM53.3075 17.1398C50.0875 15.6415 45.9763 16.0281 41.7788 18.2273L33.3838 22.6498C32.8088 22.9398 32.1475 23.109 31.4862 23.109H27.375C20.4175 23.109 16.5938 26.3231 16.5938 32.1715V41.8381C16.5938 47.6865 20.4175 50.9006 27.375 50.9006H31.4862C32.1475 50.9006 32.8088 51.0698 33.3838 51.3598L41.7788 55.7823C44.3088 57.1115 46.7812 57.764 49.0812 57.764C50.5578 57.7749 52.013 57.467 53.3075 56.8698C56.4988 55.3715 58.2812 52.254 58.2812 48.0973V25.9123C58.2812 21.7556 56.4988 18.6381 53.3075 17.1398Z" fill="#FF06C8"/>
</g>
<path d="M64.75 48.4792C64.3496 48.4792 63.957 48.3855 63.6164 48.2085C63.2758 48.0316 63.0005 47.7784 62.8214 47.4773C62.6423 47.1762 62.5665 46.8392 62.6025 46.5039C62.6384 46.1687 62.7847 45.8485 63.025 45.5792C65.2231 43.1005 66.4104 40.0916 66.4104 37C66.4104 33.9085 65.2231 30.8996 63.025 28.4209C62.6819 28.0363 62.5346 27.5529 62.6154 27.0771C62.6963 26.6012 62.9988 26.1718 63.4563 25.8834C63.9138 25.595 64.4888 25.4711 65.0549 25.5391C65.6211 25.6071 66.1319 25.8613 66.475 26.2459C72.11 32.5775 72.11 41.4225 66.475 47.7542C66.0438 48.2375 65.4113 48.4792 64.75 48.4792Z" fill="#FF06C8"/>
<path d="M70.0055 54.5208C69.6051 54.5208 69.2125 54.4271 68.8719 54.2501C68.5313 54.0731 68.256 53.8199 68.0769 53.5189C67.8978 53.2178 67.822 52.8808 67.858 52.5455C67.8939 52.2103 68.0402 51.8901 68.2805 51.6208C75.9568 43.0175 75.9568 30.9825 68.2805 22.3791C67.9374 21.9946 67.79 21.5112 67.8709 21.0353C67.9518 20.5594 68.2543 20.13 68.7118 19.8416C69.1693 19.5532 69.7443 19.4294 70.3104 19.4973C70.8766 19.5653 71.3874 19.8196 71.7305 20.2041C80.5567 30.0883 80.5567 43.9116 71.7305 53.7958C71.328 54.2791 70.6667 54.5208 70.0055 54.5208ZM53.3075 17.1398C50.0875 15.6415 45.9763 16.0281 41.7788 18.2273L33.3838 22.6498C32.8088 22.9398 32.1475 23.109 31.4862 23.109H27.375C20.4175 23.109 16.5938 26.3231 16.5938 32.1715V41.8381C16.5938 47.6865 20.4175 50.9006 27.375 50.9006H31.4862C32.1475 50.9006 32.8088 51.0698 33.3838 51.3598L41.7788 55.7823C44.3088 57.1115 46.7812 57.764 49.0812 57.764C50.5578 57.7749 52.013 57.467 53.3075 56.8698C56.4988 55.3715 58.2812 52.254 58.2812 48.0973V25.9123C58.2812 21.7556 56.4988 18.6381 53.3075 17.1398Z" fill="#FF06C8"/>
<defs>
<filter id="filter0_f_103_939" x="-3" y="-8" width="101" height="90" filterUnits="userSpaceOnUse" color-interpolation-filters="sRGB">
<feFlood flood-opacity="0" result="BackgroundImageFix"/>
<feBlend mode="normal" in="SourceGraphic" in2="BackgroundImageFix" result="shape"/>
<feGaussianBlur stdDeviation="8" result="effect1_foregroundBlur_103_939"/>
</filter>
</defs>
</svg>
